<svg width="26" height="31" viewBox="0 0 26 31" fill="none" xmlns="http://www.w3.org/2000/svg">
<path d="M21.2323 16.2008C21.1968 12.3521 24.4645 10.4797 24.6139 10.3925C22.7633 7.76184 19.8949 7.40241 18.887 7.37375C16.4779 7.12656 14.1411 8.77924 12.9139 8.77924C11.6622 8.77924 9.77238 7.39763 7.73563 7.43823C5.11466 7.47764 2.66272 8.95716 1.31795 11.2547C-1.45733 15.9392 0.612491 22.8234 3.27142 26.61C4.6015 28.4645 6.1557 30.5351 8.19001 30.4622C10.1802 30.3822 10.9236 29.2251 13.3254 29.2251C15.7051 29.2251 16.4032 30.4622 18.4779 30.4157C20.6138 30.3822 21.9586 28.5528 23.2422 26.6816C24.7792 24.5561 25.3965 22.4628 25.421 22.3553C25.3708 22.3386 21.2728 20.8137 21.2323 16.2008Z" fill="white"/>
<path d="M17.3132 4.88279C18.3836 3.57761 19.116 1.80194 18.9127 0C17.3634 0.0668712 15.4258 1.04486 14.3101 2.32139C13.3229 3.44626 12.4411 5.28999 12.6689 7.02387C14.4093 7.15045 16.1962 6.16768 17.3132 4.88279Z" fill="white"/>
</svg>