<svg width="22" height="22" viewBox="0 0 22 22" fill="none" xmlns="http://www.w3.org/2000/svg">
<path fill-rule="evenodd" clip-rule="evenodd" d="M0 10.75C0 16.6871 4.81294 21.5 10.75 21.5C16.6871 21.5 21.5 16.6871 21.5 10.75C21.5 10.0147 21.4261 9.29585 21.285 8.6008C20.4107 4.29368 17.417 2.18567 16.1255 1.43862C14.5436 0.523512 12.7068 0 10.75 0C4.81294 0 0 4.81294 0 10.75Z" fill="#E8983A"/>
<path fill-rule="evenodd" clip-rule="evenodd" d="M21.6878 3.40241C21.8799 3.9202 21.6159 4.4957 21.0981 4.68782C20.0393 5.08068 18.8776 5.89841 17.7016 6.97885C16.5368 8.04902 15.4143 9.32404 14.4296 10.5607C13.4468 11.7949 12.6133 12.9754 12.0253 13.8481C11.7317 14.2839 11.5001 14.6417 11.3426 14.8894C11.2639 15.0132 11.2037 15.1094 11.1637 15.174L11.1188 15.2466L11.1081 15.2642L11.1057 15.2682C10.9169 15.5794 10.5733 15.7643 10.2095 15.7494C9.84567 15.7346 9.51866 15.5232 9.35581 15.1975C8.67848 13.8428 7.90935 13.0911 7.34956 12.684C7.06727 12.4787 6.83223 12.3567 6.68004 12.2891C6.60386 12.2552 6.54837 12.235 6.51806 12.2247C6.50528 12.2203 6.49701 12.2178 6.49357 12.2168C5.9662 12.0769 5.64733 11.5388 5.78009 11.0077C5.91404 10.4719 6.45698 10.1462 6.99277 10.2801C7.01751 10.2866 6.99397 10.2804 6.99397 10.2804L6.99521 10.2807L6.99783 10.2814L7.00365 10.2829L7.01751 10.2866C7.02773 10.2894 7.03991 10.2928 7.05396 10.2969C7.08206 10.3051 7.11767 10.3162 7.16014 10.3305C7.24507 10.3593 7.35755 10.4016 7.49231 10.4615C7.76199 10.5813 8.12071 10.7718 8.52591 11.0665C9.06867 11.4613 9.68487 12.0357 10.2789 12.8612C10.3076 12.8184 10.3368 12.7749 10.3667 12.7305C10.9754 11.8272 11.8405 10.6015 12.865 9.31484C13.8876 8.03067 15.0813 6.67028 16.3485 5.50607C17.6045 4.35213 18.9906 3.33653 20.4024 2.81272C20.9202 2.62061 21.4957 2.88462 21.6878 3.40241Z" fill="#F5EFF5"/>
</svg>
