<svg width="21" height="21" viewBox="0 0 21 21" fill="none" xmlns="http://www.w3.org/2000/svg">
<path d="M4.875 7.58301V20.041H0V7.58301H4.875ZM12.458 9.75V20.041H7.58301V9.75H12.458ZM20.041 20.041H15.166V5.41602H20.041V20.041ZM17.6035 0C18.5027 0 19.2285 0.725833 19.2285 1.625C19.2283 2.52402 18.5026 3.25 17.6035 3.25H17.5928C17.2895 3.24996 17.0078 3.174 16.7695 3.0332L11.6348 5.96875C11.6348 6.85706 10.9089 7.58297 10.0098 7.58301C9.25143 7.58301 8.61181 7.05182 8.43848 6.34766L3.56348 4.9502C3.27105 5.23177 2.87069 5.40519 2.4375 5.40527C1.53833 5.40527 0.8125 4.67944 0.8125 3.78027C0.81262 2.88121 1.53841 2.15527 2.4375 2.15527C3.20652 2.15542 3.84525 2.68656 4.01855 3.39062L8.89355 4.78809C9.18605 4.50642 9.58717 4.33301 10.0205 4.33301C10.3238 4.33301 10.6054 4.40898 10.8438 4.5498L15.9785 1.61426C15.9785 0.726031 16.7045 0.000174494 17.6035 0Z" fill="#E8983A"/>
</svg>
