<svg width="24" height="24" viewBox="0 0 24 24" fill="none" xmlns="http://www.w3.org/2000/svg">
<path d="M9 13.25C9.9665 13.25 10.75 14.0335 10.75 15V21C10.75 21.9665 9.9665 22.75 9 22.75H3C2.0335 22.75 1.25 21.9665 1.25 21V15C1.25 14.0335 2.0335 13.25 3 13.25H9ZM21 13.25C21.9665 13.25 22.75 14.0335 22.75 15V21C22.75 21.9665 21.9665 22.75 21 22.75H15C14.0335 22.75 13.25 21.9665 13.25 21V15C13.25 14.0335 14.0335 13.25 15 13.25H21ZM9 1.25C9.9665 1.25 10.75 2.0335 10.75 3V9C10.75 9.9665 9.9665 10.75 9 10.75H3C2.0335 10.75 1.25 9.9665 1.25 9V3C1.25 2.0335 2.0335 1.25 3 1.25H9ZM18.9697 1.46973C19.2626 1.17683 19.7374 1.17683 20.0303 1.46973L22.5303 3.96973C22.8232 4.26262 22.8232 4.73738 22.5303 5.03027L17.0303 10.5303C16.8896 10.6709 16.6989 10.75 16.5 10.75H14C13.5858 10.75 13.25 10.4142 13.25 10V7.5C13.25 7.30109 13.3291 7.11038 13.4697 6.96973L18.9697 1.46973Z" fill="#E8983A"/>
</svg>
