<svg width="31" height="31" viewBox="0 0 31 31" fill="none" xmlns="http://www.w3.org/2000/svg">
<g clip-path="url(#clip0_1787_48690)">
<path fill-rule="evenodd" clip-rule="evenodd" d="M18.4582 5.35083C18.6725 4.93624 19.0371 4.63118 19.4849 4.48854L20.0471 4.30948C20.9714 4.01509 21.9513 4.52158 22.2457 5.44583L26.4945 18.7855C26.7889 19.7098 26.2824 20.6897 25.3582 20.9841L24.796 21.1631C24.3577 21.3027 23.8743 21.2678 23.4597 21.0535L22.2129 20.4011C21.7355 20.1544 21.2027 20.0302 20.6712 20.042L19.0421 20.0677L18.5147 21.9045C18.2659 22.7708 17.5926 23.4575 16.735 23.7307C15.3153 24.1829 13.7952 23.3972 13.343 21.9775L12.7693 20.1765L12.2474 20.1854L9.81646 12.5532L16.7684 7.78872C17.2183 7.48798 17.5716 7.08152 17.8184 6.60411L18.4582 5.35083ZM14.3257 20.1533L14.7627 21.5253C14.963 22.1542 15.6414 22.5048 16.2703 22.3045C16.6514 22.1831 16.9528 21.8771 17.0592 21.4864L17.4573 20.1003L14.3161 20.1563L14.3257 20.1533ZM8.45354 13.2497L10.7297 20.3959L9.53867 20.7753C8.09037 21.2366 6.54509 20.4379 6.08378 18.9896L5.4768 17.0839C5.0155 15.6356 5.81419 14.0903 7.2625 13.629L8.45354 13.2497Z" fill="#E8983A"/>
</g>
<defs>
<clipPath id="clip0_1787_48690">
<rect width="24" height="24" fill="white" transform="translate(0 7.28381) rotate(-17.6673)"/>
</clipPath>
</defs>
</svg>
