<svg width="49" height="50" viewBox="0 0 49 50" fill="none" xmlns="http://www.w3.org/2000/svg">
<path d="M9.80859 40.3347C12.8236 44.8034 17.7511 47.8513 23.4211 48.2409C24.0286 48.2868 24.7487 48.2868 26.0312 48.2868H29.0911C30.3511 48.2868 31.0713 48.2868 31.7013 48.2409C34.0638 48.0805 36.3136 47.4618 38.3161 46.4535L47.9237 49.2722L45.4036 40.1742C47.0686 37.6305 48.1036 34.6514 48.3286 31.4431C48.3736 30.8243 48.3737 30.091 48.3737 28.8076V28.6472C48.3737 27.3638 48.3736 26.6305 48.3286 26.0118C48.0586 22.1388 46.5963 18.6098 44.3013 15.791C44.3463 16.066 44.3686 16.3638 44.3911 16.6388C44.4361 17.3721 44.4362 18.1972 44.4362 19.3659V19.7556C44.4362 20.9472 44.4361 21.7492 44.3911 22.4825C43.6711 32.9325 35.4361 41.2284 25.1536 41.9388C24.4336 41.9847 23.6236 41.9847 22.4536 41.9847H19.1687C17.9987 41.9847 17.1887 41.9847 16.4687 41.9388C14.1287 41.7784 11.8787 41.2284 9.83123 40.3347H9.80859Z" fill="#F5F5F5"/>
<path fill-rule="evenodd" clip-rule="evenodd" d="M24.9526 0.0458781C24.3451 4.47584e-05 23.625 0 22.3425 0H19.2825C18 0 17.2799 4.47584e-05 16.6724 0.0458781C7.76241 0.664628 0.652544 7.8375 0.0450439 16.8438C4.39446e-05 17.4625 0 18.1958 0 19.4792V19.6396C0 20.923 4.39446e-05 21.6563 0.0450439 22.275C0.270044 25.4834 1.30504 28.4625 2.97004 31.0062L0.427588 40.1042L10.0349 37.2855C12.0599 38.2938 14.3099 38.9125 16.6724 39.0729C17.2799 39.1188 18 39.1188 19.2825 39.1188H22.3425C23.625 39.1188 24.3451 39.1188 24.9526 39.0729C33.8626 38.4542 40.9725 31.2813 41.58 22.275C41.625 21.6563 41.625 20.923 41.625 19.6396V19.4792C41.625 18.1958 41.625 17.4625 41.58 16.8438C40.9725 7.8375 33.8626 0.664628 24.9526 0.0458781ZM11.8125 22.9167H29.8125V26.3542H11.8125V22.9167ZM11.8125 13.75H23.0625V17.1875H11.8125V13.75Z" fill="#E8983A"/>
</svg>
