<svg width="25" height="26" viewBox="0 0 25 26" fill="none" xmlns="http://www.w3.org/2000/svg">
<path fill-rule="evenodd" clip-rule="evenodd" d="M20.9023 11.5873C22.8675 14.1269 23.9595 15.9857 23.9595 15.9857C23.2877 17.1393 22.5353 18.3741 21.7035 19.6884C21.7035 19.6884 20.4939 17.6984 18.333 14.9067C17.2439 13.5004 14.4542 10.3642 14.4118 10.3188C14.4138 10.3806 14.4099 24.0179 14.4186 25.3041L14.4112 25.3022C14.4115 25.3069 14.4115 25.3142 14.4115 25.3189H9.89018C9.89886 24.0324 9.895 10.3806 9.89693 10.3188C9.85452 10.3642 7.06487 13.5004 5.97575 14.9067C3.81484 17.6984 2.60523 19.6884 2.60523 19.6884C1.77345 18.3741 1.02102 17.1393 0.349549 15.9857C0.349549 15.9857 1.44125 14.1269 3.4065 11.5873C4.27394 10.4661 6.3722 8.13637 6.89717 7.55747C5.40805 7.82594 4.02174 8.17517 2.98819 8.51178C1.99095 8.83609 1.22824 9.15661 0.729298 9.38627C0.25413 9.60458 0 9.74465 0 9.74465C0.31196 8.54837 0.665042 7.46536 1.066 6.52114C1.066 6.52114 1.30406 6.35521 1.7516 6.0981C2.21874 5.82963 2.93101 5.45958 3.86239 5.093C4.8471 4.7056 6.08177 4.32103 7.49089 4.0349C7.45073 4.00588 6.55854 3.30016 6.20739 3.07776C4.58333 2.04774 3.94431 2.38056 3.94431 2.38056C4.75265 1.80829 5.56901 1.34581 6.37766 1.01488C6.37766 1.01488 6.5036 0.942949 6.74745 0.885533C7.00672 0.824962 7.42053 0.791837 7.96156 0.894051C8.56845 1.0092 10.3094 1.80987 10.339 1.82627C10.3413 1.8004 10.4229 1.03223 10.4515 0.759975C10.5353 -0.0365948 10.7136 0.011988 10.8559 0H13.4528C13.5951 0.011988 13.7735 -0.0365948 13.8573 0.759975C13.8859 1.03223 13.9675 1.8004 13.9698 1.82627C13.9993 1.80987 15.7403 1.0092 16.3472 0.894051C16.8882 0.791837 17.302 0.824962 17.5616 0.885533C17.8052 0.942949 17.9311 1.01488 17.9311 1.01488C18.7397 1.34581 19.5561 1.80829 20.3644 2.38056C20.3644 2.38056 19.7254 2.04774 18.1014 3.07776C17.7502 3.30016 16.858 4.00588 16.8179 4.0349C18.2273 4.32103 19.4617 4.7056 20.4464 5.093C21.3778 5.45958 22.0903 5.82963 22.5572 6.0981C23.0047 6.35521 23.2428 6.52114 23.2428 6.52114C23.6437 7.46536 23.9971 8.54837 24.3088 9.74465C24.3088 9.74465 24.0546 9.60458 23.5795 9.38627C23.0805 9.15661 22.3178 8.83609 21.3206 8.51178C20.287 8.17517 18.9007 7.82594 17.4116 7.55747C17.9366 8.13637 20.0348 10.4661 20.9023 11.5873Z" fill="#E8983A"/>
</svg>
