<svg width="1440" height="49" viewBox="0 0 1440 49" fill="none" xmlns="http://www.w3.org/2000/svg">
<path d="M32.0718 -7.76326L50.1474 11.2936L68.3857 -7.92613L86.6241 11.2936L104.944 -7.92613L123.182 11.2936L141.421 -7.92613L159.74 11.2936L177.979 -7.92613L196.217 11.2936L214.455 -7.92613L232.775 11.2936L251.014 -7.92613L269.252 11.2936L287.49 -7.92613L305.81 11.2936L324.048 -7.92613L342.287 11.2936L360.525 -7.92613L378.845 11.2936L397.083 -7.92613L415.322 11.2936L433.56 -7.92613L451.88 11.2936L470.118 -7.92613L488.357 11.2936L506.676 -7.92613L524.915 11.2936L543.153 -7.92613L561.391 11.2936L579.711 -7.92613L597.95 11.2936L616.188 -7.92613L634.426 11.2936L652.746 -7.92613L670.984 11.2936L686.699 -5.23863L702.332 11.2936L720 -7.27462L737.668 11.2936L755.744 -7.76326L773.819 11.2936L792.058 -7.92613L810.296 11.2936L828.616 -7.92613L846.854 11.2936L865.093 -7.92613L883.331 11.2936L901.651 -7.92613L919.889 11.2936L938.128 -7.92613L956.447 11.2936L974.686 -7.92613L992.924 11.2936L1011.16 -7.92613L1029.48 11.2936L1047.72 -7.92613L1065.96 11.2936L1084.2 -7.92613L1102.52 11.2936L1120.76 -7.92613L1138.99 11.2936L1157.23 -7.92613L1175.55 11.2936L1193.79 -7.92613L1212.03 11.2936L1230.27 -7.92613L1248.59 11.2936L1266.83 -7.92613L1285.06 11.2936L1303.38 -7.92613L1321.62 11.2936L1339.86 -7.92613L1358.1 11.2936L1376.42 -7.92613L1394.66 11.2936L1410.29 -5.23863L1426 11.2936L1451 -15.0114L1426 -41.3163L1410.29 -24.7841L1394.66 -41.3163L1376.42 -22.0966L1358.1 -41.3163L1339.86 -22.0966L1321.62 -41.3163L1303.38 -22.0966L1285.06 -41.3163L1266.83 -22.0966L1248.59 -41.3163L1230.27 -22.0966L1212.03 -41.3163L1193.79 -22.0966L1175.55 -41.3163L1157.23 -22.0966L1138.99 -41.3163L1120.76 -22.0966L1102.52 -41.3163L1084.2 -22.0966L1065.96 -41.3163L1047.72 -22.0966L1029.48 -41.3163L1011.16 -22.0966L992.924 -41.3163L974.686 -22.0966L956.447 -41.3163L938.128 -22.0966L919.889 -41.3163L901.651 -22.0966L883.331 -41.3163L865.093 -22.0966L846.854 -41.3163L828.616 -22.0966L810.296 -41.3163L792.058 -22.0966L773.819 -41.3163L755.744 -22.2595L737.668 -41.3163L720 -22.7481L702.332 -41.3163L686.699 -24.7841L670.984 -41.3163L652.746 -22.0966L634.426 -41.3163L616.188 -22.0966L597.95 -41.3163L579.711 -22.0966L561.391 -41.3163L543.153 -22.0966L524.915 -41.3163L506.676 -22.0966L488.357 -41.3163L470.118 -22.0966L451.88 -41.3163L433.56 -22.0966L415.322 -41.3163L397.083 -22.0966L378.845 -41.3163L360.525 -22.0966L342.287 -41.3163L324.048 -22.0966L305.81 -41.3163L287.49 -22.0966L269.252 -41.3163L251.014 -22.0966L232.775 -41.3163L214.455 -22.0966L196.217 -41.3163L177.979 -22.0966L159.74 -41.3163L141.421 -22.0966L123.182 -41.3163L104.944 -22.0966L86.6241 -41.3163L68.3857 -22.0966L50.1474 -41.3163L32.0718 -22.2595L13.9963 -41.3163L-11 -15.0114L13.9963 11.2936L32.0718 -7.76326Z" fill="#FDF4EB"/>
<path d="M240.103 48.9186C319.082 48.9186 397.816 48.9186 476.795 48.9186C476.795 46.8826 476.795 45.2538 476.795 43.1364C397.653 43.1364 318.756 43.1364 239.615 43.1364C240.022 45.2538 239.37 47.2083 240.103 48.9186Z" fill="#FDF4EB"/>
<path d="M-3.42784 43.0549C-3.91636 46.3939 -3.91636 46.394 -3.18357 49C75.5508 49 154.367 49 233.182 49C233.508 46.964 233.508 45.1724 233.182 43.0549C154.204 43.0549 75.3879 43.0549 -3.42784 43.0549Z" fill="#FDF4EB"/>
<path d="M557.402 25.7898C562.776 28.6401 568.149 31.4091 573.523 34.2595C574.989 35.0739 576.454 34.9924 577.92 34.178C583.212 31.3277 588.505 28.4773 593.634 25.7083C599.171 28.6401 604.382 31.3277 609.674 34.178C611.058 34.911 612.524 35.1553 613.745 34.4223C618.956 31.1648 624.656 28.803 629.948 25.7083C635.241 28.4773 640.37 31.1648 645.5 33.9337C647.047 34.7481 648.594 35.0739 650.222 34.178C655.514 31.3277 660.888 28.4773 666.099 25.6269C671.473 28.3958 676.765 31.0833 681.976 33.9337C683.686 34.8295 685.152 34.8295 686.862 33.8523C691.991 31.0019 697.121 28.3144 702.25 25.6269C708.113 28.6402 713.894 31.6534 719.837 34.8295C719.919 34.2595 720 33.7708 720 33.2822C720.082 33.7708 720.244 34.178 720.57 34.6667C726.351 31.6534 732.05 28.6401 737.831 25.7083C742.961 28.3958 748.172 31.0833 753.301 33.8523C755.174 34.911 756.721 34.8295 758.512 33.8523C763.642 31.0833 768.771 28.3958 773.982 25.7083C779.112 28.3958 784.241 30.839 789.208 33.6894C791.325 34.911 792.954 34.8295 794.989 33.7708C800.119 31.0019 805.248 28.3144 810.215 25.7083C815.426 28.3958 820.474 30.7576 825.278 33.608C827.395 34.8295 829.023 34.8295 831.059 33.7708C836.188 31.0019 841.318 28.3144 846.447 25.6269C851.333 28.1515 856.218 30.4318 860.777 33.2822C863.546 34.9924 865.744 34.6667 868.35 33.2008C873.072 30.5133 877.876 28.1515 882.68 25.7083C887.239 28.0701 891.718 30.3504 896.359 32.7936C896.766 31.2462 896.928 30.0246 896.521 28.233C892.369 26.1155 888.216 23.9167 884.064 21.7178C882.68 20.9848 881.54 21.5549 880.319 22.2064C876.003 24.4867 871.688 26.6042 867.535 29.0473C865.5 30.2689 863.79 30.1061 861.755 28.9659C857.602 26.6856 853.368 24.5682 849.216 22.2879C847.262 21.2292 845.552 21.2292 843.679 22.2879C839.527 24.5682 835.293 26.6856 831.14 28.9659C829.267 30.0246 827.558 30.0246 825.603 28.9659C821.451 26.6856 817.217 24.6496 813.065 22.2879C811.029 21.1477 809.238 21.2292 807.284 22.3693C803.213 24.7311 798.979 26.767 794.745 29.0473C792.954 30.0246 791.407 30.1061 789.534 29.0473C785.3 26.6856 780.985 24.5682 776.751 22.2064C774.797 21.0663 773.168 21.1477 771.214 22.2879C766.98 24.6496 762.665 26.8485 758.431 29.1288C756.803 30.0246 755.256 30.1061 753.546 29.1288C749.149 26.6856 744.589 24.4053 740.193 21.9621C738.971 21.3106 737.75 20.9034 736.447 21.5549C730.992 24.4053 725.618 27.3371 720.082 30.2689C720.163 30.6761 720.082 31.0833 720.082 31.4091C720 31.0019 720 30.5133 719.919 30.1061C714.708 27.3371 709.578 24.6496 704.449 21.8807C702.902 21.0663 701.599 21.1477 700.133 21.9621C695.818 24.3239 691.34 26.5227 687.025 28.9659C685.152 30.0246 683.442 30.0246 681.488 28.9659C677.254 26.6042 672.939 24.4053 668.705 22.125C666.995 21.2292 665.529 21.1477 663.738 22.125C659.423 24.5682 654.945 26.6856 650.629 29.1288C648.757 30.1875 647.21 30.1061 645.418 29.1288C641.184 26.767 636.869 24.6496 632.635 22.2879C630.762 21.2292 629.215 21.2292 627.424 22.2064C623.19 24.5682 618.793 26.6856 614.641 29.0473C612.687 30.1061 611.058 30.1061 609.104 29.0473C604.952 26.767 600.718 24.6496 596.565 22.3693C594.53 21.2292 592.82 21.3106 590.785 22.4508C586.795 24.7311 582.561 26.6856 578.571 28.9659C576.536 30.1061 574.826 30.1875 572.79 28.9659C567.905 26.197 562.857 23.7538 557.809 21.0663C552.679 23.3466 547.713 26.0341 542.746 28.8845C542.827 30.3504 541.932 31.8163 543.397 33.2008C547.957 30.7576 552.679 28.233 557.402 25.7898Z" fill="#FDF4EB"/>
<path d="M-3.10212 34.7482C2.67879 31.7349 8.37827 28.7217 14.1592 25.7898C19.2887 28.4773 24.4997 31.1648 29.6292 33.9338C31.5019 34.9925 33.0489 34.9111 34.8402 33.9338C39.9697 31.1648 45.0993 28.4773 50.3102 25.7898C55.4398 28.4773 60.5693 30.9205 65.536 33.7709C67.653 34.9925 69.2814 34.911 71.3169 33.8523C76.4464 31.0834 81.576 28.3959 86.5427 25.7898C91.7536 28.4773 96.8018 30.8391 101.687 33.6895C103.804 34.9111 105.432 34.911 107.468 33.8523C112.597 31.0834 117.727 28.3959 122.857 25.7084C127.742 28.233 132.627 30.5133 137.187 33.3637C139.955 35.0739 142.153 34.7482 144.759 33.2823C149.481 30.5948 154.285 28.233 159.089 25.7898C163.649 28.1516 168.127 30.4319 172.768 32.8751C173.175 31.3277 173.338 30.1061 172.931 28.3145C168.778 26.197 164.626 23.9982 160.473 21.7993C159.089 21.0664 157.949 21.6364 156.728 22.288C152.412 24.5683 148.097 26.6857 143.945 29.1289C141.909 30.3504 140.199 30.1876 138.164 29.0474C134.011 26.7671 129.777 24.6497 125.625 22.3694C123.671 21.3107 121.961 21.3107 120.088 22.3694C115.936 24.6497 111.702 26.7671 107.549 29.0474C105.677 30.1061 103.967 30.1061 102.013 29.0474C97.8602 26.7671 93.6263 24.7311 89.4739 22.3694C87.4383 21.2292 85.6471 21.3107 83.6929 22.4508C79.6219 24.8126 75.388 26.8485 71.1541 29.1289C69.3628 30.1061 67.8158 30.1876 65.9431 29.1289C61.7092 26.7671 57.3939 24.6497 53.16 22.288C51.2059 21.1478 49.5774 21.2292 47.6233 22.3694C43.3894 24.7311 39.0741 26.93 34.8402 29.2103C33.2118 30.1061 31.6648 30.1876 29.9549 29.2103C25.5582 26.7671 20.9986 24.4868 16.6018 22.0436C15.3805 21.3921 14.1592 20.9849 12.8564 21.6364C7.40122 24.4868 2.02742 27.4186 -3.50923 30.3504C-3.50923 31.9792 -4.24202 33.3637 -3.10212 34.7482Z" fill="#FDF4EB"/>
<path d="M195.159 25.7897C200.532 28.5587 205.825 31.2462 211.036 34.0965C212.664 34.9924 214.048 34.9109 215.677 34.0965C220.888 31.2462 226.18 28.5587 231.391 25.8712C236.928 28.803 242.383 31.6534 247.838 34.5037C249.059 35.1552 250.362 34.9924 251.583 34.2594C256.876 31.409 262.25 28.6401 267.623 25.8712C273.079 28.7215 278.534 31.6534 283.989 34.5037C285.21 35.1552 286.513 34.9924 287.735 34.3409C293.027 31.4905 298.401 28.7215 303.856 25.9526C308.985 28.6401 314.196 31.3276 319.326 34.0965C321.199 35.0738 322.746 35.0738 324.618 34.0151C329.748 31.2462 334.959 28.5587 340.007 25.9526C344.648 28.3143 349.126 30.5946 353.686 32.9564C354.581 31.4905 354.663 30.3503 354.011 28.6401C350.429 26.6856 346.521 24.6496 342.694 22.4507C340.74 21.3105 339.03 21.5549 337.157 22.6136C333.086 24.8939 328.934 26.8484 324.944 29.2102C322.827 30.4318 321.117 30.4318 318.919 29.2102C313.871 26.5227 308.985 23.5094 303.612 21.392C298.564 23.998 293.597 26.5227 288.712 29.2916C286.676 30.4318 284.885 30.4318 282.849 29.2916C277.964 26.6041 272.916 24.0795 267.623 21.3105C262.331 24.0795 257.283 26.6856 252.235 29.3731C250.362 30.4318 248.652 30.5132 246.698 29.3731C242.79 27.1742 238.638 25.2196 234.729 23.0208C232.45 21.7177 230.495 21.4734 228.053 22.9393C224.063 25.3011 219.911 27.2556 215.84 29.4545C213.967 30.5132 212.257 30.4318 210.303 29.3731C206.069 27.0113 201.754 24.8124 197.52 22.4507C195.973 21.5549 194.507 21.4734 192.879 22.3693C188.808 24.6496 184.737 26.767 180.503 29.0473C180.666 30.5132 180.177 31.8977 180.828 33.445C185.877 30.6761 190.518 28.2329 195.159 25.7897Z" fill="#FDF4EB"/>
<path d="M362.072 33.2008C366.876 30.6761 371.68 28.233 376.321 25.7898C381.857 28.6401 387.231 31.4091 392.524 34.2595C393.908 34.9924 395.211 34.8295 396.595 34.178C401.969 31.3277 407.261 28.5587 412.472 25.7898C418.09 28.7216 423.464 31.6534 428.919 34.4223C430.059 34.9924 431.28 34.911 432.42 34.3409C437.875 31.4905 443.331 28.6401 448.704 25.7898C453.997 28.5587 459.289 31.3277 464.5 34.0966C465.966 34.911 467.35 34.911 468.897 34.178C474.189 31.3277 479.563 28.6401 484.937 25.8712C490.148 28.5587 495.359 31.1648 500.488 33.9337C502.198 34.911 503.745 34.9924 505.455 34.0151C510.666 31.2462 515.958 28.4773 521.169 25.7898C525.647 28.0701 530.044 30.3504 534.522 32.6307C535.174 31.0019 535.092 29.7803 534.767 28.233C531.265 26.3598 527.52 24.4867 523.938 22.3693C521.983 21.2292 520.355 21.3106 518.401 22.3693C514.248 24.7311 510.015 26.767 505.943 29.1288C503.989 30.1875 502.361 30.2689 500.488 29.2102C496.336 26.9299 492.102 24.8125 487.949 22.5322C485.914 21.392 484.204 21.3106 482.168 22.5322C478.179 24.8125 474.026 26.8485 469.955 29.1288C467.92 30.2689 466.128 30.2689 464.093 29.1288C459.94 26.8485 455.707 24.8125 451.636 22.4508C449.681 21.392 448.053 21.3106 446.099 22.3693C441.946 24.7311 437.712 26.767 433.56 29.0473C431.524 30.1875 429.733 30.1061 427.698 29.0473C422.812 26.3598 417.764 23.8352 412.553 21.0663C407.261 23.8352 402.131 26.3598 397.165 29.1288C395.211 30.1875 393.664 30.2689 391.709 29.1288C386.743 26.3598 381.613 23.8352 376.565 21.1477C371.273 23.3466 366.469 26.197 361.584 28.8845C361.665 30.4318 361.095 31.8163 362.072 33.2008Z" fill="#FDF4EB"/>
<path d="M328.527 13.9811C327.061 10.9678 324.374 9.33901 322.257 6.57007C319.489 8.68749 317.453 10.8864 315.336 13.4924C316.802 16.8314 319.489 18.8674 322.176 21.2292C324.456 18.6231 326.817 16.6686 328.527 13.9811Z" fill="#FDF4EB"/>
<path d="M364.678 13.8996C362.398 11.2121 360.362 8.85032 358.083 6.24426C355.966 9.33896 352.627 10.8049 351.569 14.3882C353.767 16.7499 355.721 18.7859 358.083 21.3105C360.688 18.7045 363.375 16.7499 364.678 13.8996Z" fill="#FDF4EB"/>
<path d="M177.327 6.57007C174.478 8.68749 172.442 11.2121 170.488 13.5739C172.768 16.2614 174.803 18.5417 176.839 20.9848C179.444 18.9489 181.48 16.5871 183.678 13.9811C182.294 10.8049 179.282 9.25757 177.327 6.57007Z" fill="#FDF4EB"/>
<path d="M400.666 13.9811C399.282 12.1894 398.467 10.7235 397.409 9.66481C396.35 8.6061 395.536 7.05875 393.664 6.89587C392.117 9.66481 388.778 10.8864 387.883 14.2254C390.081 16.5872 392.035 18.7046 394.234 21.0663C396.839 18.7046 399.852 16.9129 400.666 13.9811Z" fill="#FDF4EB"/>
<path d="M502.85 20.5776C505.374 18.1344 507.572 16.0985 509.933 13.8182C507.653 11.1307 505.699 8.68747 503.012 6.65149C500.733 9.17611 497.801 10.9678 496.417 14.6325C499.186 16.4242 500.407 19.7632 502.85 20.5776Z" fill="#FDF4EB"/>
<path d="M220.074 14.3068C218.119 11.1307 215.595 8.93181 212.99 6.57007C210.71 9.17613 208.267 11.1307 206.639 13.8182C208.919 16.017 211.036 18.1345 213.56 20.6591C215.921 19.2746 217.631 16.6686 220.074 14.3068Z" fill="#FDF4EB"/>
<path d="M467.024 20.9849C469.467 18.5417 471.828 16.5872 473.456 13.5739C471.258 11.2122 469.467 8.68756 466.78 6.81445C464.419 9.1762 462.058 11.2122 460.022 14.2254C462.465 16.5057 464.174 19.1118 467.024 20.9849Z" fill="#FDF4EB"/>
<path d="M539.408 20.9034C541.932 18.7045 544.293 16.5871 546.003 13.5738C543.56 10.9678 541.769 8.44314 538.919 6.73291C536.965 9.25753 534.278 10.9678 532.731 13.981C534.848 16.5871 536.802 19.0303 539.408 20.9034Z" fill="#FDF4EB"/>
<path d="M25.5581 13.8181C27.9193 16.1799 29.9549 18.2973 32.3975 20.7405C34.8401 18.9488 36.8757 16.5056 38.9926 14.0625C36.6314 11.4564 34.5144 9.17609 32.3161 6.73291C29.6292 8.85033 27.4308 11.0492 25.5581 13.8181Z" fill="#FDF4EB"/>
<path d="M292.457 13.6554C290.096 11.2936 288.223 8.85044 285.618 6.81445C283.419 9.25764 280.732 11.0493 279.674 13.2482C282.116 16.2614 283.989 18.5417 285.943 20.9849C288.223 18.6232 290.666 16.5872 292.457 13.6554Z" fill="#FDF4EB"/>
<path d="M648.349 20.822C650.303 18.2974 653.397 16.8315 654.212 14.144C652.013 11.2936 650.222 9.01329 648.268 6.40723C645.581 9.17617 642.975 11.1307 641.103 14.3068C643.79 16.2614 645.092 19.3561 648.349 20.822Z" fill="#FDF4EB"/>
<path d="M256.225 13.5738C253.7 11.2935 251.991 8.60602 249.222 6.73291C247.105 9.09465 244.988 11.375 243.034 13.6553C244.826 16.6685 247.268 18.5416 249.304 21.0662C251.909 18.8674 254.433 16.75 256.225 13.5738Z" fill="#FDF4EB"/>
<path d="M437.224 13.6553C435.188 11.0493 432.99 8.8504 430.954 6.97729C428.593 9.33904 426.476 11.5379 424.278 13.8182C426.476 16.0985 428.675 18.2974 431.117 20.822C432.746 18.5417 435.433 16.9943 437.224 13.6553Z" fill="#FDF4EB"/>
<path d="M62.0349 13.4924C62.9305 16.6686 66.106 18.1345 67.9787 20.9034C70.9912 19.3561 72.5383 16.5057 75.1437 14.3068C73.1896 11.2121 70.6656 8.93182 68.4672 7.05872C66.4317 9.17614 64.4775 11.0492 62.0349 13.4924Z" fill="#FDF4EB"/>
<path d="M582.235 13.981C580.2 11.2121 577.92 8.9318 575.884 7.14014C573.442 9.42044 571.243 11.375 568.638 13.7367C571.162 16.3428 573.035 18.8674 575.559 20.7405C578.164 19.1117 579.874 16.5871 582.235 13.981Z" fill="#FDF4EB"/>
<path d="M141.339 6.57007C138.652 8.52461 136.698 10.9678 134.418 13.411C135.965 16.75 138.408 19.0303 141.339 21.0663C143.293 18.2973 145.899 16.75 147.446 13.7367C145.736 10.8049 143.049 9.33901 141.339 6.57007Z" fill="#FDF4EB"/>
<path d="M612.198 20.9034C613.989 18.2159 617.246 16.75 618.142 13.1666C616.025 10.9678 614.071 9.01321 611.872 6.73291C609.348 9.01321 606.987 11.2121 604.952 14.2253C607.72 16.3428 609.104 19.356 612.198 20.9034Z" fill="#FDF4EB"/>
<path d="M691.095 13.6554C688.49 11.3751 686.943 8.3618 683.849 6.81445C681.732 9.42051 679.208 11.2122 677.335 14.0626C679.778 16.3429 681.651 18.8675 684.175 20.7406C686.699 18.9489 688.653 16.6686 691.095 13.6554Z" fill="#FDF4EB"/>
<path d="M98.1045 14.2254C100.384 16.5057 102.42 18.6231 104.7 20.9034C107.061 18.6231 109.341 16.4242 111.132 14.0625C108.852 11.5379 106.817 9.25757 104.455 6.57007C102.42 9.42045 99.5701 10.9678 98.1045 14.2254Z" fill="#FDF4EB"/>
<path d="M719.918 7.79163C717.72 9.82761 715.766 11.7007 713.73 13.6553C715.603 16.1799 717.476 18.2159 719.918 20.089C719.918 15.6912 719.918 11.8636 719.918 7.79163Z" fill="#FDF4EB"/>
<path d="M2.51589 13.8996C0.480363 11.7822 -1.3109 9.82765 -3.42786 7.62878C-3.42786 11.9451 -3.42786 15.9356 -3.42786 20.3333C-1.14806 17.9716 0.968891 16.1799 2.51589 13.8996Z" fill="#FDF4EB"/>
<path d="M963.775 48.9186C1042.75 48.9186 1121.49 48.9186 1200.47 48.9186C1200.47 46.8826 1200.47 45.2538 1200.47 43.1364C1121.33 43.1364 1042.43 43.1364 963.287 43.1364C963.612 45.2538 963.042 47.2083 963.775 48.9186Z" fill="#FDF4EB"/>
<path d="M720.244 43.0549C720.081 44.0322 720 44.6837 720 45.2538C720 44.5209 719.919 43.7879 719.919 43.0549C640.859 43.0549 562.043 43.0549 483.146 43.0549C482.901 45.0909 482.82 46.964 483.227 48.9186C562.287 48.9186 641.103 48.9186 719.919 48.9186C720.081 48.1042 720.081 47.3712 720.081 46.5568C720.163 47.2084 720.326 47.7784 720.57 48.9186C799.304 48.9186 878.12 48.9186 956.936 48.9186C957.262 46.8826 957.262 45.0909 956.936 42.9735C877.876 43.055 799.06 43.0549 720.244 43.0549Z" fill="#FDF4EB"/>
<path d="M1206.74 43.1364C1206.49 45.1723 1206.41 47.0454 1206.82 49C1285.88 49 1364.69 49 1443.51 49C1443.83 46.964 1443.75 45.1723 1443.59 43.1364C1364.53 43.1364 1285.63 43.1364 1206.74 43.1364Z" fill="#FDF4EB"/>
<path d="M1427.96 22.0435C1426.41 21.2291 1425.11 21.3106 1423.64 22.125C1419.33 24.4867 1414.93 26.6856 1410.53 29.1287C1408.66 30.1875 1406.95 30.1875 1405 29.1287C1400.76 26.767 1396.45 24.5681 1392.21 22.2878C1390.5 21.392 1389.04 21.3106 1387.25 22.2878C1382.93 24.731 1378.45 26.8484 1374.14 29.2916C1372.27 30.3503 1370.72 30.2689 1368.93 29.2916C1364.69 26.9299 1360.38 24.8125 1356.14 22.4507C1354.35 21.392 1352.72 21.392 1350.93 22.3693C1346.7 24.731 1342.38 26.8484 1338.15 29.2102C1336.2 30.2689 1334.57 30.2689 1332.61 29.2102C1328.46 26.9299 1324.23 24.8125 1320.07 22.5322C1318.04 21.392 1316.33 21.4734 1314.29 22.6136C1310.3 24.8939 1306.07 26.8484 1302.08 29.1287C1300.05 30.2689 1298.34 30.3503 1296.3 29.1287C1291.41 26.3598 1286.37 23.9166 1281.32 21.2291C1276.19 23.5094 1271.22 26.1969 1266.26 29.0473C1266.34 30.5132 1265.44 31.9791 1266.91 33.3636C1271.63 30.839 1276.43 28.3958 1281.16 25.8712C1286.53 28.7215 1291.9 31.4905 1297.28 34.3409C1298.74 35.1553 1300.21 35.0738 1301.67 34.2594C1306.97 31.409 1312.26 28.5587 1317.39 25.7897C1322.92 28.7215 1328.14 31.409 1333.43 34.2594C1334.81 34.9924 1336.28 35.2367 1337.5 34.5037C1342.71 31.2462 1348.41 28.8844 1353.62 25.7897C1358.91 28.5587 1364.04 31.2462 1369.17 34.0151C1370.72 34.8295 1372.27 35.1553 1373.89 34.2594C1379.19 31.409 1384.56 28.5587 1389.77 25.7083C1395.15 28.4772 1400.44 31.1647 1405.65 34.0151C1407.36 34.9109 1408.82 34.9109 1410.53 33.9337C1415.66 31.0833 1420.79 28.3958 1425.92 25.7083C1431.78 28.7215 1437.57 31.7348 1443.51 34.9109C1443.92 33.1193 1443.92 31.8977 1443.51 30.2689C1438.3 27.5 1433.09 24.8125 1427.96 22.0435Z" fill="#FDF4EB"/>
<path d="M918.831 25.7897C924.204 28.5587 929.497 31.2462 934.708 34.0965C936.336 34.9924 937.72 34.9109 939.349 34.0965C944.56 31.2462 949.852 28.5587 955.063 25.8712C960.6 28.803 966.055 31.6534 971.51 34.5037C972.732 35.1552 974.034 34.9924 975.256 34.2594C980.548 31.409 985.922 28.6401 991.296 25.8712C996.751 28.7215 1002.21 31.6534 1007.66 34.5037C1008.88 35.1552 1010.19 34.9924 1011.41 34.3409C1016.7 31.4905 1022.07 28.7215 1027.53 25.9526C1032.66 28.6401 1037.87 31.3276 1043 34.0965C1044.87 35.0738 1046.42 35.0738 1048.29 34.0151C1053.42 31.2462 1058.63 28.5587 1063.68 25.9526C1068.32 28.3143 1072.8 30.5946 1077.36 32.9564C1078.25 31.4905 1078.33 30.3503 1077.68 28.6401C1074.1 26.6856 1070.19 24.6496 1066.37 22.4507C1064.41 21.3105 1062.7 21.5549 1060.83 22.6136C1056.76 24.8939 1052.61 26.8484 1048.62 29.2102C1046.5 30.4318 1044.79 30.4318 1042.59 29.2102C1037.54 26.5227 1032.66 23.5094 1027.28 21.392C1022.24 23.998 1017.27 26.5227 1012.38 29.2916C1010.35 30.4318 1008.56 30.4318 1006.52 29.2916C1001.64 26.6041 996.588 24.0795 991.296 21.3105C986.003 24.0795 980.955 26.6856 975.907 29.3731C974.034 30.4318 972.324 30.5132 970.37 29.3731C966.462 27.1742 962.31 25.2196 958.401 23.0208C956.122 21.7177 954.167 21.4734 951.725 22.9393C947.735 25.3011 943.583 27.2556 939.512 29.4545C937.639 30.5132 935.929 30.4318 933.975 29.3731C929.741 27.0113 925.426 24.8124 921.192 22.4507C919.645 21.5549 918.179 21.4734 916.551 22.3693C912.48 24.6496 908.409 26.767 904.175 29.0473C904.338 30.5132 903.849 31.8977 904.501 33.445C909.549 30.6761 914.19 28.2329 918.831 25.7897Z" fill="#FDF4EB"/>
<path d="M1085.74 33.2008C1090.55 30.6761 1095.35 28.233 1099.99 25.7898C1105.53 28.6401 1110.9 31.4091 1116.2 34.2595C1117.58 34.9924 1118.88 34.8295 1120.27 34.178C1125.64 31.3277 1130.93 28.5587 1136.14 25.7898C1141.76 28.7216 1147.14 31.6534 1152.59 34.4223C1153.73 34.9924 1154.95 34.911 1156.09 34.3409C1161.55 31.4905 1167 28.6401 1172.38 25.7898C1177.67 28.5587 1182.96 31.3277 1188.17 34.0966C1189.64 34.911 1191.02 34.911 1192.57 34.178C1197.94 31.3277 1203.24 28.6401 1208.61 25.8712C1213.82 28.5587 1219.03 31.1648 1224.16 33.9337C1225.87 34.911 1227.42 34.9924 1229.13 34.0151C1234.34 31.2462 1239.63 28.4773 1244.84 25.7898C1249.32 28.0701 1253.72 30.3504 1258.19 32.6307C1258.85 31.0019 1258.76 29.7803 1258.44 28.233C1254.94 26.3598 1251.27 24.4867 1247.61 22.3693C1245.66 21.2292 1244.03 21.3106 1242.07 22.3693C1237.92 24.7311 1233.69 26.767 1229.53 29.1288C1227.58 30.1875 1225.95 30.2689 1224.08 29.2102C1219.93 26.9299 1215.69 24.8125 1211.54 22.5322C1209.5 21.392 1207.79 21.3106 1205.76 22.5322C1201.77 24.8125 1197.62 26.8485 1193.55 29.1288C1191.51 30.2689 1189.72 30.2689 1187.68 29.1288C1183.53 26.8485 1179.3 24.8125 1175.23 22.4508C1173.27 21.392 1171.64 21.3106 1169.69 22.3693C1165.54 24.7311 1161.3 26.767 1157.15 29.0473C1155.12 30.1875 1153.32 30.1061 1151.29 29.0473C1146.4 26.3598 1141.36 23.8352 1136.14 21.0663C1130.85 23.8352 1125.72 26.3598 1120.76 29.1288C1118.8 30.1875 1117.25 30.2689 1115.3 29.1288C1110.33 26.3598 1105.2 23.8352 1100.16 21.1477C1094.86 23.3466 1090.06 26.197 1085.17 28.8845C1085.34 30.4318 1084.77 31.8163 1085.74 33.2008Z" fill="#FDF4EB"/>
<path d="M1052.2 13.9811C1050.73 10.9678 1048.05 9.33901 1045.93 6.57007C1043.16 8.68749 1041.13 10.8864 1039.01 13.4924C1040.47 16.8314 1043.16 18.8674 1045.85 21.2292C1048.13 18.6231 1050.49 16.6686 1052.2 13.9811Z" fill="#FDF4EB"/>
<path d="M1088.35 13.8996C1086.07 11.2121 1084.03 8.85032 1081.75 6.24426C1079.64 9.33896 1076.3 10.8049 1075.24 14.3882C1077.44 16.7499 1079.39 18.7859 1081.75 21.3105C1084.36 18.7045 1086.97 16.7499 1088.35 13.8996Z" fill="#FDF4EB"/>
<path d="M907.432 14.0625C906.048 10.8049 903.035 9.25757 901.081 6.57007C898.231 8.68749 896.196 11.2121 894.241 13.5739C896.521 16.2614 898.557 18.5417 900.592 20.9848C903.198 18.9489 905.233 16.5871 907.432 14.0625Z" fill="#FDF4EB"/>
<path d="M1124.34 13.9811C1122.95 12.1894 1122.14 10.7235 1121.08 9.66481C1120.02 8.6061 1119.21 7.05875 1117.34 6.89587C1115.79 9.66481 1112.45 10.8864 1111.55 14.2254C1113.75 16.5872 1115.71 18.7046 1117.91 21.0663C1120.51 18.7046 1123.52 16.9129 1124.34 13.9811Z" fill="#FDF4EB"/>
<path d="M1226.52 20.5776C1229.05 18.1344 1231.24 16.0985 1233.61 13.8182C1231.33 11.1307 1229.37 8.68747 1226.68 6.65149C1224.4 9.17611 1221.47 10.9678 1220.09 14.6325C1222.86 16.4242 1224.08 19.7632 1226.52 20.5776Z" fill="#FDF4EB"/>
<path d="M943.746 14.3068C941.791 11.1307 939.267 8.93181 936.662 6.57007C934.382 9.17613 931.939 11.1307 930.311 13.8182C932.591 16.017 934.708 18.1345 937.232 20.6591C939.593 19.2746 941.303 16.6686 943.746 14.3068Z" fill="#FDF4EB"/>
<path d="M1190.7 20.9849C1193.14 18.5417 1195.5 16.5872 1197.13 13.5739C1194.93 11.2122 1193.14 8.68756 1190.45 6.81445C1188.09 9.1762 1185.73 11.2122 1183.69 14.2254C1186.14 16.5057 1187.85 19.1118 1190.7 20.9849Z" fill="#FDF4EB"/>
<path d="M1263.08 20.9034C1265.6 18.7045 1267.97 16.5871 1269.67 13.5738C1267.23 10.9678 1265.44 8.44314 1262.59 6.73291C1260.64 9.25753 1257.95 10.9678 1256.4 13.981C1258.52 16.5871 1260.39 19.0303 1263.08 20.9034Z" fill="#FDF4EB"/>
<path d="M762.665 13.981C760.303 11.375 758.187 9.09467 755.907 6.65149C753.301 8.76891 751.021 11.0492 749.23 13.7367C751.591 16.0985 753.627 18.2159 756.07 20.6591C758.512 18.9488 760.548 16.5057 762.665 13.981Z" fill="#FDF4EB"/>
<path d="M1016.13 13.6554C1013.77 11.2936 1011.9 8.85044 1009.29 6.81445C1007.09 9.25764 1004.4 11.0493 1003.35 13.2482C1005.79 16.2614 1007.66 18.5417 1009.62 20.9849C1011.9 18.6232 1014.34 16.5872 1016.13 13.6554Z" fill="#FDF4EB"/>
<path d="M1364.77 14.3883C1367.46 16.3428 1368.76 19.3561 1372.02 20.9034C1373.98 18.3788 1377.07 16.9129 1377.8 14.2254C1375.6 11.375 1373.81 9.09471 1371.86 6.48865C1369.25 9.17615 1366.65 11.1307 1364.77 14.3883Z" fill="#FDF4EB"/>
<path d="M979.897 13.5738C977.373 11.2935 975.663 8.60602 972.895 6.73291C970.778 9.09465 968.742 11.375 966.707 13.6553C968.498 16.6685 970.94 18.5416 972.976 21.0662C975.581 18.8674 978.105 16.75 979.897 13.5738Z" fill="#FDF4EB"/>
<path d="M1160.9 13.6553C1158.86 11.0493 1156.66 8.8504 1154.63 6.97729C1152.27 9.33904 1150.15 11.5379 1147.95 13.8182C1150.15 16.0985 1152.35 18.2974 1154.79 20.822C1156.42 18.5417 1159.1 16.9943 1160.9 13.6553Z" fill="#FDF4EB"/>
<path d="M791.651 20.9034C794.663 19.3561 796.21 16.5057 798.816 14.3068C796.862 11.2121 794.338 8.93182 792.139 7.05872C790.022 9.17614 788.15 11.0492 785.707 13.4924C786.603 16.6686 789.778 18.2159 791.651 20.9034Z" fill="#FDF4EB"/>
<path d="M1299.56 7.14014C1297.11 9.42044 1294.92 11.375 1292.31 13.7367C1294.83 16.3428 1296.71 18.8674 1299.23 20.7405C1301.84 19.0303 1303.55 16.5057 1305.99 13.981C1303.87 11.2121 1301.59 8.9318 1299.56 7.14014Z" fill="#FDF4EB"/>
<path d="M871.036 13.7367C869.408 10.8049 866.721 9.33901 864.93 6.57007C862.243 8.52461 860.289 10.9678 858.009 13.411C859.556 16.75 861.999 19.0303 864.93 21.0663C866.884 18.2159 869.571 16.6686 871.036 13.7367Z" fill="#FDF4EB"/>
<path d="M1328.62 14.3068C1331.39 16.3428 1332.78 19.4375 1335.87 20.9034C1337.66 18.2159 1340.92 16.75 1341.81 13.1666C1339.7 10.9678 1337.74 9.01321 1335.54 6.73291C1332.94 9.01321 1330.58 11.2935 1328.62 14.3068Z" fill="#FDF4EB"/>
<path d="M1407.52 6.81445C1405.4 9.42051 1402.88 11.2122 1401.01 14.0626C1403.45 16.3429 1405.32 18.8675 1407.85 20.7406C1410.37 18.9489 1412.24 16.6686 1414.77 13.6554C1412.16 11.3751 1410.62 8.3618 1407.52 6.81445Z" fill="#FDF4EB"/>
<path d="M834.804 14.0625C832.524 11.5379 830.57 9.25757 828.127 6.57007C826.092 9.33901 823.161 10.8864 821.777 14.2254C824.056 16.5057 826.092 18.6231 828.372 20.9034C830.733 18.7045 833.013 16.5057 834.804 14.0625Z" fill="#FDF4EB"/>
<path d="M1443.59 20.089C1443.59 15.6912 1443.59 11.8636 1443.59 7.79163C1441.39 9.82761 1439.44 11.7007 1437.4 13.6553C1439.28 16.1799 1441.15 18.2159 1443.59 20.089Z" fill="#FDF4EB"/>
<path d="M720.244 7.54736C720.244 11.8637 720.244 15.8542 720.244 20.2519C722.605 17.9716 724.641 16.1799 726.188 13.8182C724.152 11.7822 722.28 9.74623 720.244 7.54736Z" fill="#FDF4EB"/>
</svg>