<svg width="24" height="24" viewBox="0 0 24 24" fill="none" xmlns="http://www.w3.org/2000/svg">
<path d="M4.10135 0C5.15099 0 5.67641 -0.000160496 6.12869 0.182617C6.42729 0.303361 6.69982 0.481253 6.93143 0.705078C7.28224 1.04413 7.49631 1.52319 7.92264 2.48242L8.23904 3.19531C8.6126 4.03582 8.79926 4.45631 8.83475 4.87793C8.87247 5.32637 8.78875 5.77664 8.59256 6.18164C8.40808 6.56242 8.08281 6.88768 7.4324 7.53809C6.79245 8.17804 6.47242 8.49833 6.28396 8.91504C6.10063 9.32047 6.02294 9.89025 6.09061 10.3301C6.16023 10.7821 6.34767 11.1148 6.72244 11.7793C8.05095 14.1347 9.61513 15.6988 11.9705 17.0273C12.6349 17.4021 12.9677 17.5896 13.4197 17.6592C13.8595 17.7269 14.4293 17.6492 14.8347 17.4658C15.2515 17.2774 15.5717 16.9573 16.2117 16.3174C16.8621 15.667 17.1874 15.3417 17.5681 15.1572C17.9731 14.961 18.4234 14.8773 18.8719 14.915C19.2935 14.9505 19.714 15.1372 20.5545 15.5107L21.2674 15.8271C22.2266 16.2535 22.7057 16.4675 23.0447 16.8184C23.2685 17.05 23.4464 17.3225 23.5672 17.6211C23.7499 18.0734 23.7498 18.5988 23.7498 19.6484C23.7498 21.2113 23.7493 21.9926 23.3699 22.6016C23.1372 22.975 22.7424 23.3323 22.3474 23.5264C21.7033 23.8427 20.9933 23.7715 19.574 23.6279C7.79688 22.437 1.31281 15.9529 0.121855 4.17578C-0.0216652 2.75648 -0.0929229 2.04646 0.223418 1.40234C0.41748 1.00741 0.77481 0.612591 1.14822 0.379883C1.75717 0.000496147 2.53846 2.70534e-09 4.10135 0ZM12.4998 0C18.713 0 23.7498 5.0368 23.7498 11.25C23.7498 11.9404 23.1901 12.5 22.4998 12.5C21.8094 12.5 21.2498 11.9404 21.2498 11.25C21.2498 6.41751 17.3323 2.5 12.4998 2.5C11.8094 2.5 11.2498 1.94036 11.2498 1.25C11.2498 0.559644 11.8094 0 12.4998 0ZM13.1248 4.375C16.5766 4.375 19.3748 7.17322 19.3748 10.625C19.3748 11.3154 18.8151 11.875 18.1248 11.875C17.4344 11.875 16.8748 11.3154 16.8748 10.625C16.8748 8.55393 15.1959 6.875 13.1248 6.875C12.4344 6.875 11.8748 6.31536 11.8748 5.625C11.8748 4.93464 12.4344 4.375 13.1248 4.375Z" fill="#E8983A"/>
</svg>
