<svg width="29" height="31" viewBox="0 0 29 31" fill="none" xmlns="http://www.w3.org/2000/svg">
<path d="M0.567976 0.474687C0.208206 0.842388 0 1.41487 0 2.15624V28.6008C0 29.3421 0.208206 29.9146 0.567976 30.2823L0.656771 30.363L15.8345 15.5504V15.2006L0.656771 0.387996L0.567976 0.474687Z" fill="url(#paint0_linear_1353_28915)"/>
<path d="M20.8881 20.4902L15.8345 15.5502V15.2004L20.8942 10.2604L21.0075 10.3247L26.9996 13.6534C28.7096 14.5981 28.7096 16.1526 26.9996 17.1032L21.0075 20.426L20.8881 20.4902Z" fill="url(#paint1_linear_1353_28915)"/>
<path d="M21.0075 20.4263L15.8345 15.3756L0.567993 30.2824C1.13597 30.8654 2.06218 30.9356 3.11547 30.3527L21.0075 20.4263Z" fill="url(#paint2_linear_1353_28915)"/>
<path d="M21.0075 10.3251L3.11547 0.39868C2.06218 -0.178281 1.13597 -0.108031 0.567993 0.474908L15.8345 15.3757L21.0075 10.3251Z" fill="url(#paint3_linear_1353_28915)"/>
<defs>
<linearGradient id="paint0_linear_1353_28915" x1="14.4869" y1="28.8762" x2="-5.57533" y2="8.32784" gradientUnits="userSpaceOnUse">
<stop stop-color="#00A0FF"/>
<stop offset="0.0066" stop-color="#00A1FF"/>
<stop offset="0.2601" stop-color="#00BEFF"/>
<stop offset="0.5122" stop-color="#00D2FF"/>
<stop offset="0.7604" stop-color="#00DFFF"/>
<stop offset="1" stop-color="#00E3FF"/>
</linearGradient>
<linearGradient id="paint1_linear_1353_28915" x1="29.2264" y1="15.3736" x2="-0.408744" y2="15.3736" gradientUnits="userSpaceOnUse">
<stop stop-color="#FFE000"/>
<stop offset="0.4087" stop-color="#FFBD00"/>
<stop offset="0.7754" stop-color="#FFA500"/>
<stop offset="1" stop-color="#FF9C00"/>
</linearGradient>
<linearGradient id="paint2_linear_1353_28915" x1="18.1946" y1="12.63" x2="-9.01139" y2="-15.2352" gradientUnits="userSpaceOnUse">
<stop stop-color="#FF3A44"/>
<stop offset="1" stop-color="#C31162"/>
</linearGradient>
<linearGradient id="paint3_linear_1353_28915" x1="-3.2749" y1="39.0805" x2="8.87378" y2="26.6376" gradientUnits="userSpaceOnUse">
<stop stop-color="#32A071"/>
<stop offset="0.0685" stop-color="#2DA771"/>
<stop offset="0.4762" stop-color="#15CF74"/>
<stop offset="0.8009" stop-color="#06E775"/>
<stop offset="1" stop-color="#00F076"/>
</linearGradient>
</defs>
</svg>
