<svg width="22" height="15" viewBox="0 0 22 15" fill="none" xmlns="http://www.w3.org/2000/svg">
<mask id="mask0_1815_390" style="mask-type:luminance" maskUnits="userSpaceOnUse" x="0" y="0" width="22" height="15">
<path d="M0 0H21.9991V14.6343H0V0Z" fill="white"/>
</mask>
<g mask="url(#mask0_1815_390)">
<path fill-rule="evenodd" clip-rule="evenodd" d="M-1.37646 -1.90735e-05H23.375V14.6343H-1.37646V-1.90735e-05Z" fill="#165D31"/>
<path fill-rule="evenodd" clip-rule="evenodd" d="M5.55358 4.13815C5.53028 4.48769 5.49533 5.0994 5.79535 5.16348C6.15364 5.19844 5.95556 4.5576 6.08664 4.44109C6.10995 4.38283 6.15364 4.38283 6.15655 4.45565V5.00036C6.15655 5.17514 6.27307 5.22757 6.36046 5.26252C6.45367 5.2567 6.51775 5.26252 6.55271 5.34991L6.59931 6.29077C6.59931 6.29077 6.81487 6.35486 6.82652 5.76354C6.83526 5.41399 6.75661 5.12562 6.80322 5.05862C6.80322 4.99162 6.8906 4.98871 6.94886 5.02075C7.04207 5.08484 7.08285 5.1664 7.2285 5.13727C7.44988 5.07318 7.58387 4.96541 7.58678 4.79646C7.58241 4.63043 7.54786 4.46658 7.48483 4.31292C7.49648 4.28379 7.44405 4.20514 7.4557 4.17601C7.49357 4.2401 7.55474 4.23427 7.56639 4.17601C7.52853 4.05367 7.47027 3.93424 7.37705 3.88472C7.29841 3.81482 7.18189 3.82647 7.14402 3.97211C7.12072 4.13815 7.20228 4.33331 7.32171 4.49643C7.34793 4.5576 7.38288 4.66247 7.36832 4.75568C7.30423 4.79355 7.24015 4.77607 7.1848 4.72073C7.1848 4.72073 7.01003 4.58964 7.01003 4.5576C7.05664 4.26049 7.01877 4.22553 6.99255 4.14106C6.97508 4.02746 6.91973 3.98959 6.87604 3.91385C6.83234 3.86725 6.77409 3.86725 6.74496 3.91385C6.66631 4.04785 6.70418 4.33622 6.75952 4.4673C6.8003 4.58673 6.86147 4.66247 6.83234 4.66247C6.80904 4.72946 6.75952 4.71199 6.72165 4.63334C6.67903 4.46782 6.65846 4.2974 6.66048 4.1265C6.64592 3.9925 6.62844 3.70704 6.53814 3.6313C6.48571 3.56139 6.40706 3.59635 6.37793 3.66043C6.37024 3.79056 6.37316 3.9211 6.38667 4.05076C6.44493 4.26631 6.46532 4.45856 6.49445 4.67703C6.50319 4.97123 6.3255 4.8052 6.33424 4.65664C6.37245 4.46988 6.36947 4.27703 6.3255 4.09154C6.29637 4.01581 6.26433 3.99833 6.19151 4.00998C6.13616 4.00998 5.99343 4.16436 5.95265 4.42652C5.95265 4.42652 5.9177 4.56052 5.90313 4.67994C5.88274 4.81394 5.79535 4.91298 5.73127 4.66247C5.67884 4.47896 5.64388 4.03328 5.5565 4.13815H5.55358Z" fill="white"/>
<path fill-rule="evenodd" clip-rule="evenodd" d="M6.52942 5.56831L5.59729 6.01689C5.60603 5.80425 6.03714 5.42266 6.33425 5.41975C6.52359 5.42266 6.47698 5.49257 6.5265 5.56831H6.52942Z" fill="white"/>
<path fill-rule="evenodd" clip-rule="evenodd" d="M6.36346 5.8596C5.87409 7.12671 7.51405 7.3044 7.69756 5.91204C7.71504 5.85378 7.78495 5.79843 7.7966 5.89164C7.75873 7.15293 6.52658 7.2374 6.31685 6.84125C6.26751 6.70494 6.24285 6.56093 6.24403 6.41597C6.2149 6.16837 6.08382 6.2645 6.06343 6.50918C6.04304 6.64608 6.04887 6.68395 6.04887 6.81503C6.11295 7.81124 7.70048 7.38305 7.95972 6.56161C8.09663 6.1072 7.93642 5.77222 8.00924 5.77222C8.16654 5.94116 8.38792 5.79552 8.43744 5.73726C8.45783 5.70813 8.51026 5.68774 8.54521 5.72561C8.66756 5.813 8.88311 5.77222 8.92972 5.61783C8.95593 5.46345 8.97632 5.30615 8.98215 5.14594C8.8802 5.17507 8.80737 5.19546 8.79864 5.23916L8.77825 5.37315C8.76951 5.41684 8.68503 5.41684 8.67921 5.3615C8.64134 5.18673 8.48404 5.16634 8.38792 5.43432C8.32675 5.48675 8.21023 5.4984 8.19858 5.41976C8.21314 5.23916 8.14032 5.21585 7.99468 5.30033L7.85486 4.24586C7.91312 4.24586 7.97137 4.28955 8.02672 4.21964C7.96846 4.03031 7.83738 3.64581 7.76456 3.61668C7.73252 3.5759 7.70339 3.60211 7.65678 3.61376C7.58105 3.63707 7.51114 3.70115 7.53444 3.82932C7.62183 4.37694 7.68009 4.79348 7.77039 5.34402C7.78495 5.40519 7.73252 5.48967 7.66261 5.48093C7.54609 5.40228 7.51696 5.24207 7.31306 5.2479C7.16742 5.2479 7.00429 5.4081 6.9839 5.55958C6.95769 5.68192 6.94895 5.813 6.9839 5.91786C7.08586 6.0402 7.2082 6.02855 7.31597 6.00234C7.40336 5.96447 7.47618 5.87708 7.50823 5.89747C7.52862 5.92369 7.51114 6.21498 7.09168 6.43636C6.83826 6.55287 6.63436 6.57617 6.52658 6.36936C6.45958 6.23828 6.53241 5.746 6.36346 5.8596Z" fill="white"/>
<path fill-rule="evenodd" clip-rule="evenodd" d="M8.45213 4.57244C8.54826 4.53748 9.01432 4.00151 9.01432 4.00151L8.94441 3.94325C8.9182 3.92286 8.92111 3.89956 8.94441 3.87917C9.06093 3.80926 9.02306 3.66361 8.9648 3.5937C8.92525 3.57442 8.88174 3.56465 8.83775 3.56515C8.79375 3.56566 8.75048 3.57643 8.71138 3.59662C8.62982 3.67527 8.61234 3.80052 8.67643 3.87625C8.7376 3.90538 8.79877 3.96947 8.75799 4.00442C8.56574 4.20832 8.04433 4.56078 8.1055 4.57244C8.11715 4.58991 8.44048 4.58991 8.44922 4.57244H8.45213ZM5.62663 6.46581C5.45186 6.74545 5.43729 7.162 5.53342 7.28725C5.58585 7.34551 5.67032 7.37172 5.73149 7.35133C5.84218 7.30473 5.8917 7.08043 5.86549 7.00179C5.82762 6.94353 5.79849 6.93479 5.76062 6.9814C5.68489 7.13869 5.65284 7.03092 5.64411 6.94353C5.63576 6.79553 5.64357 6.64707 5.66741 6.50077C5.6878 6.37843 5.66741 6.41338 5.62663 6.46581ZM13.1157 6.02014C12.9467 5.65312 12.7108 5.29192 12.638 5.15501C12.411 4.79616 12.17 4.44634 11.9156 4.10637C11.735 3.89082 12.2127 4.19667 11.8573 3.76556L11.5981 3.5471C11.5398 3.50632 11.4 3.43058 11.3767 3.55292C11.365 3.66361 11.3709 3.72187 11.3883 3.81217C11.4029 3.87043 11.4903 3.97238 11.534 4.03064C12.1312 4.82162 12.6557 5.66493 13.1011 6.55029C13.1768 6.51242 13.1594 6.08131 13.1157 6.02014Z" fill="white"/>
<path fill-rule="evenodd" clip-rule="evenodd" d="M12.3727 7.2376C12.3377 7.27547 12.4543 7.43568 12.6057 7.43568C12.8562 7.40655 13.0776 7.26673 13.2815 6.89388C13.3644 6.76985 13.4172 6.62824 13.4359 6.48025C13.4606 5.77312 13.4039 5.0655 13.267 4.37131C13.2582 4.31306 13.267 4.24315 13.2728 4.22567C13.2903 4.20528 13.3456 4.22567 13.3747 4.17615C13.4184 4.13246 13.2582 3.76835 13.1708 3.63144C13.1417 3.56736 13.1271 3.52658 13.0747 3.63727C13.0114 3.7594 12.9813 3.896 12.9873 4.03342C13.1067 4.86359 13.1446 5.5889 13.2203 6.41908C13.2291 6.50064 13.2174 6.61715 13.1621 6.66376C12.9423 6.90848 12.6733 7.10403 12.3727 7.2376ZM15.7662 7.23469C15.5856 7.33955 15.5856 7.45898 15.7313 7.46189C15.9818 7.43276 16.2789 7.41237 16.4828 7.10361C16.5548 6.95818 16.5964 6.7996 16.6051 6.63754C16.6418 5.9413 16.5958 5.24317 16.4682 4.55774C16.4624 4.49948 16.4362 4.36258 16.4449 4.3451C16.4624 4.30432 16.544 4.34801 16.5731 4.30141C16.6139 4.25771 16.3604 3.93147 16.2701 3.79165C16.241 3.72757 16.2294 3.68678 16.174 3.79747C16.1154 3.92074 16.097 4.05935 16.1216 4.19363C16.2556 5.09662 16.3546 5.77242 16.375 6.57055C16.3634 6.64628 16.3604 6.68706 16.3255 6.78319C16.2468 6.88223 16.1595 7.01039 16.0779 7.07157C15.9963 7.12982 15.8216 7.18808 15.7662 7.23469Z" fill="white"/>
<path fill-rule="evenodd" clip-rule="evenodd" d="M15.9 6.42793C15.9 6.21528 15.9029 6.03469 15.8971 5.87448C15.8952 5.73879 15.8654 5.60494 15.8097 5.48124C15.7573 5.36181 15.7893 5.26568 15.7631 5.13751C15.7398 5.00935 15.7456 4.8171 15.7106 4.66854C15.699 4.61028 15.6699 4.42094 15.6786 4.40055C15.6932 4.35977 15.7485 4.40055 15.7776 4.35395C15.8184 4.31025 15.632 3.82963 15.5388 3.69272C15.5067 3.63155 15.4427 3.65194 15.3698 3.75098C15.297 3.81797 15.3232 3.96653 15.3524 4.10926C15.53 5.05013 15.667 5.9036 15.6378 6.79786C15.6262 6.8736 15.9 6.57066 15.9 6.42793ZM14.5688 5.26277C14.4552 5.25694 14.2192 5.03848 14.1493 4.91322C14.1379 4.88261 14.133 4.84993 14.135 4.81731C14.137 4.78469 14.1459 4.75286 14.161 4.72388C14.2047 4.69475 14.2688 4.66563 14.3183 4.69475C14.3183 4.69475 14.3678 4.76466 14.3591 4.7734C14.4173 4.80253 14.4465 4.78797 14.4523 4.76175C14.4552 4.71806 14.4348 4.69184 14.4348 4.64524C14.461 4.51124 14.6096 4.49085 14.6678 4.57533C14.7086 4.62776 14.7261 4.73554 14.729 4.80836C14.729 4.84623 14.6707 4.80253 14.6329 4.80836C14.6008 4.82001 14.5921 4.86079 14.5892 4.89574C14.5834 4.99187 14.5717 5.14625 14.5688 5.25986V5.26277ZM12.4773 6.66096C12.5065 6.37549 12.4657 5.86574 12.4628 5.69679C12.4472 5.26229 12.4112 4.82877 12.355 4.39764C12.32 4.15296 12.454 4.42386 12.4366 4.28112C12.3929 4.03935 12.2589 3.87332 12.0987 3.65485C12.0491 3.58203 12.0491 3.56747 11.9705 3.67233C11.8831 3.86749 11.9588 4.0044 11.9821 4.15878C12.0958 4.6598 12.1627 5.12004 12.1948 5.57736C12.2283 6.05243 12.2322 6.52913 12.2064 7.00468C12.2938 7.00759 12.4278 6.86777 12.4773 6.66096Z" fill="white"/>
<path fill-rule="evenodd" clip-rule="evenodd" d="M16.2875 6.20351C16.0865 5.86562 15.7864 5.50442 15.7049 5.36751C15.4348 4.99032 15.1511 4.62305 14.8543 4.26644C14.6067 4.00428 14.9708 4.22275 14.8077 4.01885C14.6708 3.87029 14.6329 3.82077 14.5135 3.73047C14.4553 3.6926 14.4203 3.61978 14.397 3.74503C14.3877 3.85353 14.3858 3.96252 14.3912 4.07128C14.3912 4.1208 14.4436 4.21692 14.4902 4.27518C15.0932 5.01797 15.7544 5.77532 16.2845 6.72783C16.3603 6.68997 16.3341 6.26177 16.2845 6.20351H16.2875Z" fill="white"/>
<path fill-rule="evenodd" clip-rule="evenodd" d="M7.2169 5.58319C7.20233 5.60941 7.17029 5.64145 7.18194 5.67349C7.20233 5.70262 7.22272 5.71136 7.25768 5.71136C7.28972 5.71136 7.33633 5.7201 7.34507 5.70262C7.36254 5.68223 7.37419 5.64436 7.36254 5.60649C7.32759 5.51911 7.23438 5.55406 7.2169 5.58319Z" fill="#165D31"/>
<path fill-rule="evenodd" clip-rule="evenodd" d="M13.9629 10.4706C14.2309 10.4823 14.4057 10.4852 14.6416 10.5114L14.9213 10.4823C15.2301 10.4532 15.2417 10.9221 15.2417 10.9221C15.2417 11.1989 15.1339 11.2134 14.997 11.2426C14.9184 11.2542 14.8805 11.1959 14.8368 11.1377C14.7709 11.1588 14.7008 11.1628 14.6329 11.1493C14.5193 11.1435 14.4086 11.1435 14.2979 11.1348C14.1814 11.126 14.1173 11.1493 13.9979 11.1377C13.9746 11.1756 13.9396 11.228 13.8697 11.2134C13.8115 11.2047 13.7387 11.0387 13.759 10.9076C13.8027 10.8144 13.7882 10.8464 13.7882 10.8056C12.6929 10.7765 11.5889 10.727 10.517 10.7415C9.67808 10.7445 8.85082 10.7794 8.02064 10.8144C7.57788 10.8085 7.23999 10.7386 7.00696 10.3978C7.03026 10.3978 8.13716 10.459 8.46049 10.4386C9.05763 10.4328 9.60526 10.3833 10.2141 10.3658C11.4142 10.3862 12.6055 10.3862 13.8056 10.4706C13.6891 10.392 13.6891 10.2085 13.8639 10.1619C13.8785 10.1502 13.8872 10.2522 13.9134 10.2493C14.0562 10.2405 13.9921 10.4328 13.9629 10.4706ZM9.13919 3.85255C8.9586 4.37104 9.24406 4.94197 9.44214 4.88663C9.58778 4.94488 9.67517 4.67107 9.73342 4.37396C9.77712 4.28948 9.80625 4.28074 9.82664 4.32444C9.82081 4.72059 9.85577 4.81089 9.95772 4.93032C10.1849 5.10509 10.3743 4.95362 10.3888 4.93906L10.5636 4.76137C10.6044 4.71768 10.6568 4.71768 10.7122 4.75263C10.7675 4.80215 10.7588 4.88663 10.8753 4.94488C10.9743 4.98566 11.1811 4.95653 11.2307 4.87206C11.2947 4.75846 11.3122 4.72059 11.3413 4.67981C11.3879 4.61864 11.4666 4.64486 11.4666 4.66525C11.4579 4.7002 11.4113 4.73224 11.4433 4.79633C11.5016 4.83711 11.5132 4.81089 11.5452 4.80215C11.6618 4.74389 11.7491 4.49338 11.7491 4.49338C11.7521 4.40017 11.6996 4.406 11.6647 4.4293L11.5744 4.49047C11.5161 4.49921 11.4083 4.53708 11.353 4.4526C11.2976 4.35357 11.2976 4.21083 11.2569 4.10888C11.2569 4.10306 11.1811 3.94867 11.251 3.93994C11.286 3.94576 11.3588 3.96615 11.3705 3.90498C11.4054 3.84381 11.2947 3.67195 11.2161 3.58456C11.1491 3.51174 11.0559 3.503 10.9656 3.57874C10.9015 3.63699 10.9102 3.70108 10.8986 3.76225C10.8875 3.80609 10.8871 3.85192 10.8972 3.89598C10.9073 3.94004 10.9278 3.98106 10.9568 4.01567C11.0209 4.13801 11.1345 4.29822 11.0967 4.52543C11.0967 4.52543 11.0297 4.63029 10.9131 4.61573C10.8636 4.60699 10.785 4.5866 10.7442 4.272C10.7122 4.03897 10.75 3.7069 10.651 3.55252C10.6131 3.4564 10.5869 3.3661 10.4995 3.5263C10.4762 3.59039 10.3743 3.68651 10.4471 3.88168C10.516 4.05755 10.5361 4.24876 10.5053 4.43513C10.4616 4.49921 10.4529 4.5196 10.3976 4.58077C10.3218 4.66816 10.2374 4.64486 10.1733 4.61281C10.115 4.57495 10.0684 4.55456 10.0393 4.42348C10.0451 4.21957 10.0568 3.88459 10.0189 3.81468C9.96354 3.70399 9.87324 3.74477 9.83538 3.77973C9.6621 3.97222 9.54607 4.20932 9.50039 4.46426C9.44796 4.6332 9.39262 4.58368 9.35475 4.51669C9.26154 4.4293 9.2528 3.73895 9.13919 3.85255Z" fill="white"/>
<path fill-rule="evenodd" clip-rule="evenodd" d="M9.68719 4.98276C9.77167 4.9245 9.7338 4.88372 9.85614 5.00606C10.0141 5.28547 10.1057 5.59738 10.1241 5.9178C10.1183 5.99353 10.1707 6.04014 10.1969 6.02266C10.2086 5.84789 10.6368 5.6032 11.03 5.56825C11.0883 5.55368 11.0592 5.44008 11.0679 5.38182C11.0446 5.16336 11.1902 4.96528 11.3941 4.95072C11.6738 4.9915 11.767 5.14005 11.7728 5.36435C11.7408 5.80128 11.2864 5.8741 11.033 5.90906C10.9951 5.92362 10.9776 5.9411 11.033 5.96149L12.0991 5.96732L12.1544 5.99644C12.1602 6.02557 12.1369 6.00227 12.0962 6.07218C12.0375 6.17521 12.0008 6.28926 11.9884 6.40716C11.6709 6.51203 11.3417 6.55281 11.0096 6.5965C10.8931 6.65476 10.8349 6.73341 10.8582 6.82079C10.899 6.91692 11.1553 7.01596 11.1553 7.01887C11.2048 7.048 11.2602 7.12082 11.1407 7.26938C10.6222 7.24608 10.2173 7.0247 10.0775 6.71302C10.0367 6.68097 9.99013 6.71302 9.96101 6.7538C9.7571 7.01596 9.55903 7.24899 9.21239 7.37715C9.00849 7.42959 8.79585 7.34511 8.69681 7.21112C8.62981 7.13247 8.63273 7.048 8.60942 7.03052C8.49582 7.08004 7.53457 7.48784 7.65691 7.29559C7.88994 7.048 8.29775 6.86157 8.65312 6.61689C8.67933 6.53242 8.72594 6.25278 8.86576 6.16248C8.8745 6.16248 8.84537 6.3256 8.84828 6.39551C8.84828 6.45377 8.84246 6.47416 8.85411 6.45959C8.88032 6.44503 9.31143 6.10422 9.3493 5.99936C9.39008 5.9411 9.35804 5.78963 9.35804 5.7838C9.27648 5.57408 9.16287 5.5566 9.12209 5.45173C9.08423 5.31483 9.1017 5.15753 9.18035 5.11093C9.25026 5.04975 9.33182 5.05558 9.41047 5.12549C9.49786 5.20414 9.57359 5.35852 9.59689 5.47212C9.58233 5.51582 9.48038 5.443 9.45125 5.46339C9.50732 5.52781 9.5446 5.60641 9.55903 5.69059C9.61728 5.92945 9.59981 6.02266 9.54155 6.17704C9.3493 6.58194 9.10462 6.70136 8.88906 6.85283C8.88324 6.85283 8.88032 6.95479 8.95897 7.01013C8.9881 7.03926 9.1017 7.05382 9.23278 7.01013C9.51282 6.85461 9.73927 6.61802 9.88236 6.33143C9.90711 6.11336 9.88323 5.89251 9.81245 5.68477C9.72797 5.4896 9.62894 5.21288 9.62894 5.20705C9.62602 5.08471 9.63476 5.04393 9.68719 4.98276ZM6.89664 3.85838C7.01899 3.91664 7.25202 3.89042 7.24037 3.69235L7.23454 3.60205C7.21124 3.54379 7.14133 3.55835 7.12676 3.61661C7.12094 3.637 7.1355 3.66904 7.11802 3.67778C7.10637 3.68943 7.06851 3.68361 7.06851 3.62826C7.06851 3.61079 7.05685 3.59331 7.04811 3.58166C7.04229 3.57583 7.03646 3.57583 7.0219 3.57583C7.00442 3.57583 7.00442 3.57874 6.99568 3.59331C6.99277 3.60787 6.98694 3.62244 6.98694 3.63992C6.98694 3.66031 6.97529 3.66613 6.96364 3.66904C6.94616 3.66904 6.94908 3.66904 6.93451 3.66322C6.92869 3.65448 6.91995 3.65157 6.91995 3.63409L6.91121 3.58748C6.90538 3.57874 6.89373 3.57292 6.88208 3.57001C6.81508 3.57001 6.80926 3.64865 6.81508 3.67778C6.80926 3.68361 6.80634 3.82051 6.89664 3.85838Z" fill="white"/>
<path fill-rule="evenodd" clip-rule="evenodd" d="M10.4937 5.37921C10.616 5.43747 10.9102 5.40543 10.8374 5.21609L10.8316 5.12288C10.8054 5.06462 10.7384 5.07918 10.7238 5.14035C10.718 5.15783 10.7325 5.18987 10.7122 5.19861C10.7034 5.21026 10.6626 5.20444 10.6656 5.15201C10.6656 5.13453 10.6539 5.11414 10.6452 5.10249C10.6364 5.09957 10.6335 5.09666 10.616 5.09666C10.6015 5.09666 10.6015 5.10249 10.5927 5.11705C10.5869 5.13162 10.584 5.14618 10.584 5.16366C10.5811 5.18113 10.5723 5.18696 10.5578 5.19279C10.5432 5.19279 10.5461 5.19279 10.5345 5.18405C10.5257 5.17531 10.517 5.1724 10.517 5.15783L10.5083 5.11122C10.5024 5.10249 10.4908 5.09666 10.4791 5.09375C10.4121 5.09375 10.4063 5.16948 10.4092 5.19861C10.4063 5.20444 10.4034 5.34426 10.4966 5.37921H10.4937ZM12.591 4.75003C12.7133 4.80828 12.9434 4.78207 12.9347 4.5869L12.9289 4.49369C12.9027 4.43543 12.8357 4.45 12.8211 4.50826C12.8153 4.52865 12.8298 4.56069 12.8094 4.57234C12.8007 4.58108 12.7599 4.57525 12.7628 4.51991C12.7628 4.50243 12.7512 4.48495 12.7424 4.4733C12.7337 4.46748 12.7308 4.46748 12.7133 4.46748C12.6987 4.46748 12.6988 4.4733 12.69 4.48787L12.6813 4.53156C12.6784 4.55195 12.6696 4.56069 12.6551 4.56069C12.6405 4.56069 12.6434 4.56069 12.6318 4.55486C12.623 4.54612 12.6143 4.54321 12.6143 4.52865C12.6143 4.51408 12.6114 4.49078 12.6055 4.47913C12.5997 4.47039 12.5881 4.46748 12.5764 4.46456C12.5094 4.46456 12.5036 4.5403 12.5065 4.56943C12.5036 4.57525 12.5007 4.71216 12.5939 4.75003H12.591ZM13.6775 6.33173C13.4648 6.5735 13.5581 6.97256 13.6076 7.05995C13.6775 7.19977 13.7328 7.29007 13.8697 7.35998C13.995 7.45028 14.094 7.39493 14.1465 7.33085C14.2717 7.19977 14.2746 6.86479 14.3329 6.8007C14.3737 6.67836 14.4785 6.69875 14.528 6.7541C14.5744 6.81986 14.6365 6.87294 14.7086 6.90848C14.8252 7.01043 14.965 7.03082 15.1048 6.93761C15.198 6.88226 15.2592 6.81527 15.3145 6.67836C15.3728 6.51524 15.3437 5.75789 15.3291 5.3093L15.2067 4.68303C15.2067 4.6772 15.1922 4.38591 15.1776 4.31892C15.1776 4.28979 15.1689 4.28105 15.198 4.28396C15.2301 4.31309 15.233 4.31309 15.2563 4.32183C15.2854 4.32766 15.3145 4.27231 15.2941 4.22571L15.0028 3.68391C14.9795 3.6606 14.9475 3.6373 14.9096 3.68973C14.8873 3.70996 14.8695 3.7347 14.8575 3.76232C14.8454 3.78994 14.8394 3.81981 14.8397 3.84994C14.8485 3.97811 14.8689 4.10919 14.8776 4.23736L14.9941 4.89567C15.032 5.36173 15.0407 5.74624 15.0786 6.21521C15.0728 6.41329 15.0116 6.58515 14.9533 6.61136C14.9533 6.61136 14.8659 6.66088 14.8077 6.60554C14.764 6.58806 14.5921 6.31716 14.5921 6.31716C14.5047 6.23851 14.4465 6.2589 14.3853 6.31716C14.2105 6.48611 14.1348 6.79488 14.0154 7.01043C13.9862 7.05995 13.8989 7.09782 13.8056 7.00752C13.5668 6.67836 13.7066 6.2123 13.6775 6.33173ZM12.6463 3.60235C12.757 3.64604 12.8327 3.87033 12.8094 3.98102C12.7861 4.1121 12.7279 4.25775 12.6871 4.24027C12.6405 4.22279 12.7162 4.10628 12.6725 3.98394C12.6492 3.90237 12.4978 3.75673 12.5152 3.71595C12.4861 3.62565 12.5793 3.58487 12.6463 3.59943V3.60235Z" fill="white"/>
<path fill-rule="evenodd" clip-rule="evenodd" d="M14.0329 6.46551C14.0533 6.19752 14.0155 6.0344 14.0096 5.8771C14.0038 5.71981 13.832 4.5197 13.797 4.40318C13.7533 4.17597 13.963 4.37405 13.9397 4.24006C13.8669 4.07694 13.6892 3.83517 13.6339 3.69243C13.5989 3.63418 13.6135 3.57592 13.5377 3.67787C13.4725 3.85662 13.4496 4.04805 13.4708 4.23715C13.6514 5.17801 13.8349 5.95866 13.8057 6.85292C13.8931 6.85292 13.9892 6.65776 14.0329 6.46551ZM15.9088 3.98081C16.0108 4.03033 16.0691 4.30997 16.0574 4.38862C16.037 4.53426 15.9846 4.69156 15.9467 4.67117C15.903 4.65369 15.9554 4.45561 15.9351 4.39444C15.9118 4.30705 15.7748 4.14976 15.7894 4.10315C15.7603 4.00411 15.8477 3.96333 15.9088 3.98081ZM8.46058 5.95866C8.5567 5.99653 8.61496 6.20043 8.60622 6.25869C8.58292 6.36647 8.5334 6.48299 8.49553 6.46551C8.45767 6.45386 8.50427 6.30821 8.48679 6.26161C8.47806 6.15383 8.34406 6.09557 8.34698 6.04896C8.32367 5.96158 8.40523 5.94701 8.46349 5.95866H8.46058Z" fill="white"/>
<path fill-rule="evenodd" clip-rule="evenodd" d="M10.7794 6.26735C10.9018 6.27317 10.9629 6.37221 10.8493 6.41299C10.7328 6.45086 10.625 6.4829 10.6221 6.64602C10.6658 6.87906 10.5639 6.79749 10.5056 6.76837C10.4357 6.71593 10.2376 6.59359 10.2085 6.33143C10.2056 6.27026 10.2551 6.21492 10.3338 6.21492C10.4503 6.24696 10.625 6.24987 10.7794 6.26735Z" fill="#165D31"/>
<path fill-rule="evenodd" clip-rule="evenodd" d="M5.90026 3.53512C6.04008 3.5759 6.04882 3.78563 6.04008 3.8468C6.01969 3.95749 5.97017 4.07692 5.93522 4.06235C5.89444 4.04779 5.93522 3.89632 5.91483 3.84971C5.89444 3.78563 5.77501 3.66329 5.78666 3.62833C5.76044 3.55551 5.84492 3.52056 5.90026 3.53512ZM8.69372 4.51385C8.58303 4.57211 8.54225 4.74688 8.60925 4.85175C8.67333 4.93913 8.77237 4.90709 8.78402 4.90709C8.8918 4.91874 8.95588 4.7061 8.95588 4.7061C8.95588 4.7061 8.9588 4.64785 8.83354 4.76145C8.7782 4.77019 8.77529 4.7498 8.76072 4.72067C8.74738 4.66521 8.7525 4.60692 8.77529 4.55463C8.79568 4.5022 8.75489 4.4789 8.69372 4.51385ZM9.50933 3.45356C9.45108 3.49143 9.3433 3.60503 9.34039 3.7332C9.33747 3.80602 9.32291 3.80602 9.36952 3.84971C9.40738 3.90214 9.43942 3.89923 9.50933 3.86136C9.52675 3.8504 9.5417 3.83593 9.55324 3.81888C9.56477 3.80183 9.57263 3.78257 9.57633 3.76233C9.59381 3.68077 9.48894 3.80311 9.47729 3.70989C9.45399 3.62251 9.52099 3.58755 9.58507 3.50599C9.58507 3.44773 9.58507 3.40987 9.50642 3.45356H9.50933ZM10.1618 3.57008C10.1361 3.67614 10.1205 3.7844 10.1152 3.89341C10.0977 3.97497 10.2026 4.00992 10.2463 3.90506C10.3162 3.71572 10.3162 3.63416 10.322 3.55551C10.3016 3.43026 10.2172 3.43317 10.1618 3.57008ZM14.2981 5.6761C14.3098 5.66153 14.8807 5.25664 14.8807 5.25664C14.939 5.23625 14.9244 5.46637 14.8982 5.46345C14.7211 5.6341 14.5175 5.77478 14.2952 5.88C14.2661 5.90039 14.2399 5.72562 14.2952 5.6761H14.2981ZM14.8137 5.67027C14.9157 5.71979 14.9564 6.01399 14.9448 6.09264C14.9448 6.24994 14.8487 6.37228 14.8079 6.3548C14.7671 6.33441 14.8137 6.15964 14.7933 6.09847C14.77 6.01108 14.6855 5.85087 14.7001 5.80426C14.671 5.70522 14.7525 5.65279 14.8166 5.67027H14.8137ZM11.4348 6.93447C11.482 6.87931 11.5369 6.83124 11.5979 6.79173C11.6561 6.7626 11.7086 6.81504 11.7057 6.81212C11.7144 6.87038 11.6707 6.9199 11.6853 6.99564C11.6969 7.02476 11.7057 7.05972 11.761 7.04807C11.8513 6.97525 11.9358 6.96942 12.0232 6.96651C12.096 6.96942 12.0989 7.08885 12.0523 7.08885C11.8863 7.1238 11.8134 7.17041 11.694 7.2141C11.6357 7.24906 11.5891 7.20536 11.5891 7.20245C11.5891 7.19954 11.5571 7.17041 11.5775 7.09467C11.5833 7.03642 11.56 7.00146 11.5076 7.00729C11.4726 7.03059 11.4377 7.04224 11.4202 6.99855C11.4115 6.96942 11.4085 6.95194 11.4348 6.93447ZM15.4138 7.09176C15.4371 7.12089 15.4545 7.15002 15.4109 7.20245L15.3031 7.29566C15.2856 7.32479 15.2739 7.37722 15.3322 7.39179C15.4371 7.42092 15.6818 7.26071 15.6818 7.2578C15.7225 7.22867 15.7109 7.17041 15.7051 7.17041C15.6818 7.14419 15.6293 7.16167 15.5944 7.15584C15.5769 7.15584 15.5215 7.15002 15.5478 7.09759C15.5673 7.07185 15.583 7.04339 15.5944 7.01311C15.6089 6.97816 15.5944 6.95486 15.5361 6.93447C15.4749 6.92281 15.4487 6.92864 15.3817 6.93447C15.3468 6.94029 15.3351 6.95777 15.3264 7.00146C15.3293 7.06846 15.3701 7.06555 15.4138 7.08885V7.09176Z" fill="white"/>
<path fill-rule="evenodd" clip-rule="evenodd" d="M11.4549 5.43752C11.4404 5.46665 11.3879 5.46665 11.3384 5.43752C11.2889 5.4084 11.2598 5.36179 11.2773 5.33557C11.2947 5.30936 11.3443 5.30936 11.3938 5.33557C11.4433 5.36179 11.4695 5.41131 11.4549 5.43752ZM8.86247 3.87621C8.83334 3.88495 8.79256 3.85874 8.77508 3.81796C8.7576 3.77718 8.76634 3.74222 8.79547 3.73348C8.8246 3.72474 8.86247 3.75387 8.88286 3.79174C8.90325 3.82961 8.8916 3.87039 8.85955 3.87913L8.86247 3.87621Z" fill="#165D31"/>
<path fill-rule="evenodd" clip-rule="evenodd" d="M13.9922 10.835C14.2661 10.8467 14.5224 10.835 14.7933 10.8496C14.8428 10.8933 14.8079 10.9952 14.7758 10.9894L14.5486 10.9807C14.5457 10.8933 14.3243 10.9078 14.3301 10.9836C14.2107 10.9981 14.1029 10.9807 13.9806 10.9748C13.9456 10.9311 13.9515 10.8525 13.9922 10.835Z" fill="#165D31"/>
</g>
</svg>
