<svg width="213" height="187" viewBox="0 0 213 187" fill="none" xmlns="http://www.w3.org/2000/svg">
<g filter="url(#filter0_d_1497_31142)">
<rect x="45.5" y="56.5" width="122" height="85" rx="8" fill="white" shape-rendering="crispEdges"/>
<rect x="55.5" y="91.5" width="46.2419" height="2.44186" rx="1.22093" fill="#F9E5CD"/>
<rect x="55.5" y="101.5" width="46.2419" height="2.44186" rx="1.22093" fill="#F9E5CD"/>
<rect x="55.5" y="116.5" width="105" height="14" rx="4" fill="#E8983A"/>
<rect x="107.5" y="45.5" width="26.5645" height="26.686" rx="13.2823" fill="#E8983A"/>
<path d="M118.5 64.2535C119.031 64.6555 119.732 64.9 120.5 64.9C121.268 64.9 121.969 64.6555 122.5 64.2535M114.881 62.1848C114.565 62.1848 114.388 61.7138 114.579 61.4521C115.023 60.8449 115.451 59.9543 115.451 58.8818L115.47 57.3278C115.47 54.4406 117.722 52.1 120.5 52.1C123.319 52.1 125.604 54.475 125.604 57.4048L125.586 58.8818C125.586 59.9617 126 60.8571 126.425 61.4646C126.609 61.7269 126.432 62.1848 126.12 62.1848H114.881Z" stroke="white" stroke-width="1.5" stroke-linecap="round" stroke-linejoin="round"/>
<rect x="137.5" y="62.5" width="21" height="21" rx="10.5" fill="#E8983A"/>
<path d="M147 77.8152C147.398 78.1167 147.924 78.3 148.5 78.3C149.076 78.3 149.602 78.1167 150 77.8152M144.286 76.2636C144.048 76.2636 143.916 75.9104 144.059 75.7141C144.392 75.2587 144.714 74.5908 144.714 73.7864L144.727 72.6209C144.727 70.4555 146.416 68.7 148.5 68.7C150.614 68.7 152.328 70.4813 152.328 72.6787L152.315 73.7864C152.315 74.5963 152.625 75.2679 152.944 75.7235C153.082 75.9202 152.949 76.2636 152.715 76.2636H144.286Z" stroke="white" stroke-width="1.5" stroke-linecap="round" stroke-linejoin="round"/>
<path d="M56.84 78.5V72.164C56.56 72.356 56.272 72.508 55.976 72.62C55.68 72.724 55.376 72.768 55.064 72.752V71.264C55.264 71.28 55.48 71.232 55.712 71.12C55.944 71 56.172 70.848 56.396 70.664C56.628 70.472 56.836 70.284 57.02 70.1H58.412V78.5H56.84ZM60.1745 78.5V77.288C60.1745 77.056 60.2465 76.8 60.3905 76.52C60.5345 76.24 60.7345 75.96 60.9905 75.68C61.2465 75.4 61.5465 75.14 61.8905 74.9L63.1625 73.988C63.3385 73.868 63.5025 73.732 63.6545 73.58C63.8145 73.428 63.9425 73.264 64.0385 73.088C64.1425 72.904 64.1945 72.728 64.1945 72.56C64.1945 72.352 64.1425 72.164 64.0385 71.996C63.9425 71.828 63.7985 71.696 63.6065 71.6C63.4145 71.504 63.1785 71.456 62.8985 71.456C62.6585 71.456 62.4425 71.504 62.2505 71.6C62.0665 71.696 61.9145 71.824 61.7945 71.984C61.6745 72.144 61.5905 72.316 61.5425 72.5L59.8505 72.212C59.9305 71.812 60.1025 71.44 60.3665 71.096C60.6305 70.752 60.9745 70.476 61.3985 70.268C61.8305 70.052 62.3185 69.944 62.8625 69.944C63.4865 69.944 64.0225 70.056 64.4705 70.28C64.9185 70.504 65.2625 70.812 65.5025 71.204C65.7505 71.588 65.8745 72.036 65.8745 72.548C65.8745 73.068 65.7305 73.532 65.4425 73.94C65.1625 74.34 64.7745 74.716 64.2785 75.068L63.1385 75.896C62.9065 76.056 62.7065 76.232 62.5385 76.424C62.3705 76.616 62.2425 76.828 62.1545 77.06H65.9825V78.5H60.1745ZM66.8597 79.868L67.5917 77.036H69.2357L68.0597 79.868H66.8597ZM73.1818 78.644C72.6138 78.644 72.1298 78.544 71.7298 78.344C71.3378 78.136 71.0138 77.852 70.7578 77.492C70.5098 77.132 70.3258 76.716 70.2058 76.244C70.0938 75.764 70.0378 75.248 70.0378 74.696C70.0378 74.056 70.1058 73.452 70.2418 72.884C70.3778 72.308 70.5818 71.8 70.8538 71.36C71.1338 70.92 71.4898 70.576 71.9218 70.328C72.3538 70.08 72.8738 69.956 73.4818 69.956C73.9218 69.956 74.3498 70.02 74.7658 70.148C75.1898 70.276 75.5698 70.46 75.9058 70.7L75.0898 71.9C74.8418 71.724 74.5738 71.596 74.2858 71.516C74.0058 71.436 73.7458 71.396 73.5058 71.396C72.8898 71.396 72.4058 71.668 72.0538 72.212C71.7018 72.756 71.5338 73.616 71.5498 74.792L71.2258 74.564C71.4098 74.124 71.6938 73.772 72.0778 73.508C72.4618 73.244 72.9178 73.112 73.4458 73.112C73.9818 73.112 74.4538 73.236 74.8618 73.484C75.2778 73.732 75.6018 74.072 75.8338 74.504C76.0738 74.928 76.1938 75.404 76.1938 75.932C76.1938 76.452 76.0698 76.92 75.8218 77.336C75.5738 77.744 75.2218 78.064 74.7658 78.296C74.3178 78.528 73.7898 78.644 73.1818 78.644ZM73.1818 77.252C73.4458 77.252 73.6818 77.192 73.8898 77.072C74.0978 76.952 74.2618 76.788 74.3818 76.58C74.5018 76.372 74.5618 76.132 74.5618 75.86C74.5618 75.588 74.5018 75.348 74.3818 75.14C74.2618 74.924 74.0978 74.756 73.8898 74.636C73.6818 74.508 73.4458 74.444 73.1818 74.444C72.9178 74.444 72.6778 74.508 72.4618 74.636C72.2538 74.756 72.0898 74.924 71.9698 75.14C71.8498 75.348 71.7898 75.588 71.7898 75.86C71.7898 76.132 71.8498 76.372 71.9698 76.58C72.0898 76.788 72.2538 76.952 72.4618 77.072C72.6778 77.192 72.9178 77.252 73.1818 77.252ZM80.0707 78.644C79.6867 78.644 79.2907 78.58 78.8827 78.452C78.4827 78.324 78.1187 78.132 77.7907 77.876C77.4707 77.62 77.2347 77.304 77.0827 76.928L78.5827 76.484C78.7587 76.74 78.9667 76.928 79.2067 77.048C79.4547 77.168 79.7107 77.228 79.9747 77.228C80.3907 77.228 80.7267 77.104 80.9827 76.856C81.2467 76.6 81.3787 76.26 81.3787 75.836C81.3787 75.444 81.2507 75.116 80.9947 74.852C80.7467 74.588 80.4147 74.456 79.9987 74.456C79.7507 74.456 79.5227 74.512 79.3147 74.624C79.1067 74.736 78.9467 74.868 78.8347 75.02L77.3587 74.696L77.8627 70.1H82.6147V71.588H79.2667L79.0267 73.604C79.2427 73.484 79.4827 73.388 79.7467 73.316C80.0107 73.236 80.2947 73.2 80.5987 73.208C81.0547 73.208 81.4707 73.32 81.8467 73.544C82.2227 73.76 82.5187 74.06 82.7347 74.444C82.9587 74.82 83.0707 75.26 83.0707 75.764C83.0707 76.332 82.9427 76.832 82.6867 77.264C82.4307 77.696 82.0787 78.036 81.6307 78.284C81.1827 78.524 80.6627 78.644 80.0707 78.644ZM87.4153 78.644C86.7353 78.644 86.1353 78.46 85.6153 78.092C85.0953 77.716 84.6873 77.204 84.3913 76.556C84.0953 75.9 83.9473 75.148 83.9473 74.3C83.9473 73.452 84.0953 72.704 84.3913 72.056C84.6873 71.4 85.0913 70.888 85.6033 70.52C86.1233 70.144 86.7233 69.956 87.4033 69.956C88.0833 69.956 88.6833 70.144 89.2033 70.52C89.7313 70.888 90.1433 71.4 90.4393 72.056C90.7353 72.704 90.8833 73.452 90.8833 74.3C90.8833 75.148 90.7353 75.9 90.4393 76.556C90.1433 77.204 89.7353 77.716 89.2153 78.092C88.6953 78.46 88.0953 78.644 87.4153 78.644ZM87.4153 77.156C87.7753 77.156 88.0953 77.036 88.3753 76.796C88.6633 76.548 88.8873 76.212 89.0473 75.788C89.2073 75.356 89.2873 74.86 89.2873 74.3C89.2873 73.74 89.2073 73.244 89.0473 72.812C88.8873 72.38 88.6633 72.044 88.3753 71.804C88.0953 71.556 87.7713 71.432 87.4033 71.432C87.0433 71.432 86.7233 71.556 86.4433 71.804C86.1633 72.044 85.9433 72.38 85.7833 72.812C85.6313 73.244 85.5553 73.74 85.5553 74.3C85.5553 74.86 85.6313 75.356 85.7833 75.788C85.9433 76.212 86.1633 76.548 86.4433 76.796C86.7313 77.036 87.0553 77.156 87.4153 77.156Z" fill="#616263"/>
</g>
<defs>
<filter id="filter0_d_1497_31142" x="0" y="0" width="213" height="187" filterUnits="userSpaceOnUse" color-interpolation-filters="sRGB">
<feFlood flood-opacity="0" result="BackgroundImageFix"/>
<feColorMatrix in="SourceAlpha" type="matrix" values="0 0 0 0 0 0 0 0 0 0 0 0 0 0 0 0 0 0 127 0" result="hardAlpha"/>
<feMorphology radius="0.5" operator="dilate" in="SourceAlpha" result="effect1_dropShadow_1497_31142"/>
<feOffset/>
<feGaussianBlur stdDeviation="22.5"/>
<feComposite in2="hardAlpha" operator="out"/>
<feColorMatrix type="matrix" values="0 0 0 0 0.909804 0 0 0 0 0.596078 0 0 0 0 0.227451 0 0 0 0.3 0"/>
<feBlend mode="normal" in2="BackgroundImageFix" result="effect1_dropShadow_1497_31142"/>
<feBlend mode="normal" in="SourceGraphic" in2="effect1_dropShadow_1497_31142" result="shape"/>
</filter>
</defs>
</svg>
