<svg width="218" height="192" viewBox="0 0 218 192" fill="none" xmlns="http://www.w3.org/2000/svg">
<g filter="url(#filter0_d_1497_31161)">
<rect x="50.5" y="61.5" width="122" height="85" rx="8" fill="white" shape-rendering="crispEdges"/>
<rect x="67.5" y="89.5" width="12" height="37" rx="2" fill="#E8983A"/>
<rect x="94.5" y="74.5" width="12" height="52" rx="2" fill="#FCEDDF"/>
<rect x="121.5" y="81.5" width="12" height="45" rx="2" fill="#E8983A"/>
<rect x="148.5" y="81.5" width="12" height="45" rx="2" fill="#FCEDDF"/>
<path d="M68.496 137.584C68.2907 137.584 68.0807 137.554 67.866 137.493C67.656 137.428 67.46 137.332 67.278 137.206C67.096 137.075 66.9513 136.91 66.844 136.709L67.425 136.443C67.5743 136.63 67.7377 136.767 67.915 136.856C68.0923 136.94 68.2767 136.982 68.468 136.982C68.7713 136.982 69.0163 136.891 69.203 136.709C69.3897 136.527 69.483 136.284 69.483 135.981C69.483 135.687 69.392 135.447 69.21 135.26C69.028 135.073 68.79 134.98 68.496 134.98C68.328 134.98 68.167 135.017 68.013 135.092C67.859 135.162 67.74 135.251 67.656 135.358L67.033 135.218L67.285 132.6H69.938V133.23H67.887L67.74 134.679C67.8707 134.604 68.0153 134.544 68.174 134.497C68.3327 134.45 68.4937 134.427 68.657 134.427C68.951 134.427 69.2123 134.492 69.441 134.623C69.6697 134.754 69.8493 134.936 69.98 135.169C70.1153 135.398 70.183 135.661 70.183 135.96C70.183 136.282 70.1107 136.564 69.966 136.807C69.8213 137.05 69.623 137.241 69.371 137.381C69.119 137.516 68.8273 137.584 68.496 137.584ZM72.7392 137.584C72.3612 137.584 72.0252 137.477 71.7312 137.262C71.4372 137.043 71.2062 136.744 71.0382 136.366C70.8749 135.983 70.7932 135.545 70.7932 135.05C70.7932 134.555 70.8749 134.119 71.0382 133.741C71.2062 133.358 71.4349 133.06 71.7242 132.845C72.0182 132.626 72.3565 132.516 72.7392 132.516C73.1219 132.516 73.4579 132.626 73.7472 132.845C74.0412 133.06 74.2722 133.358 74.4402 133.741C74.6082 134.119 74.6922 134.555 74.6922 135.05C74.6922 135.545 74.6082 135.983 74.4402 136.366C74.2769 136.744 74.0482 137.043 73.7542 137.262C73.4602 137.477 73.1219 137.584 72.7392 137.584ZM72.7392 136.954C72.9865 136.954 73.2059 136.872 73.3972 136.709C73.5932 136.546 73.7449 136.322 73.8522 136.037C73.9595 135.752 74.0132 135.423 74.0132 135.05C74.0132 134.677 73.9595 134.348 73.8522 134.063C73.7449 133.774 73.5932 133.547 73.3972 133.384C73.2059 133.221 72.9865 133.139 72.7392 133.139C72.4919 133.139 72.2725 133.221 72.0812 133.384C71.8899 133.547 71.7405 133.774 71.6332 134.063C71.5259 134.348 71.4722 134.677 71.4722 135.05C71.4722 135.423 71.5259 135.755 71.6332 136.044C71.7405 136.329 71.8899 136.553 72.0812 136.716C72.2725 136.875 72.4919 136.954 72.7392 136.954ZM75.6552 137.5L79.1342 132.6H79.8622L76.3622 137.5H75.6552ZM79.1202 137.612C78.9056 137.612 78.7142 137.561 78.5462 137.458C78.3782 137.355 78.2476 137.215 78.1542 137.038C78.0609 136.861 78.0142 136.66 78.0142 136.436C78.0142 136.203 78.0609 136 78.1542 135.827C78.2476 135.65 78.3782 135.512 78.5462 135.414C78.7142 135.311 78.9056 135.26 79.1202 135.26C79.3349 135.26 79.5239 135.311 79.6872 135.414C79.8552 135.512 79.9859 135.65 80.0792 135.827C80.1726 136 80.2192 136.203 80.2192 136.436C80.2192 136.66 80.1726 136.861 80.0792 137.038C79.9859 137.215 79.8552 137.355 79.6872 137.458C79.5239 137.561 79.3349 137.612 79.1202 137.612ZM79.1202 137.115C79.2882 137.115 79.4236 137.052 79.5262 136.926C79.6336 136.795 79.6872 136.632 79.6872 136.436C79.6872 136.24 79.6336 136.077 79.5262 135.946C79.4236 135.815 79.2882 135.75 79.1202 135.75C78.9522 135.75 78.8146 135.815 78.7072 135.946C78.5999 136.077 78.5462 136.24 78.5462 136.436C78.5462 136.632 78.5999 136.795 78.7072 136.926C78.8146 137.052 78.9522 137.115 79.1202 137.115ZM76.4112 134.84C76.1966 134.84 76.0052 134.791 75.8372 134.693C75.6739 134.59 75.5456 134.45 75.4522 134.273C75.3589 134.091 75.3122 133.888 75.3122 133.664C75.3122 133.431 75.3589 133.228 75.4522 133.055C75.5456 132.878 75.6739 132.74 75.8372 132.642C76.0052 132.539 76.1966 132.488 76.4112 132.488C76.6306 132.488 76.8219 132.539 76.9852 132.642C77.1532 132.74 77.2839 132.878 77.3772 133.055C77.4706 133.228 77.5172 133.431 77.5172 133.664C77.5172 133.888 77.4706 134.091 77.3772 134.273C77.2839 134.45 77.1532 134.59 76.9852 134.693C76.8219 134.791 76.6306 134.84 76.4112 134.84ZM76.4112 134.343C76.5792 134.343 76.7169 134.28 76.8242 134.154C76.9316 134.023 76.9852 133.86 76.9852 133.664C76.9852 133.468 76.9316 133.307 76.8242 133.181C76.7169 133.05 76.5792 132.985 76.4112 132.985C76.2479 132.985 76.1126 133.05 76.0052 133.181C75.8979 133.307 75.8442 133.468 75.8442 133.664C75.8442 133.86 75.8979 134.023 76.0052 134.154C76.1126 134.28 76.2479 134.343 76.4112 134.343Z" fill="#616263"/>
<path d="M93.9677 137.584C93.6037 137.584 93.2887 137.528 93.0227 137.416C92.7567 137.299 92.549 137.141 92.3997 136.94C92.255 136.735 92.1827 136.497 92.1827 136.226C92.1827 135.937 92.2597 135.682 92.4137 135.463C92.5724 135.239 92.7894 135.069 93.0647 134.952C92.8454 134.845 92.6727 134.695 92.5467 134.504C92.4207 134.313 92.3577 134.093 92.3577 133.846C92.3577 133.585 92.423 133.354 92.5537 133.153C92.689 132.952 92.878 132.796 93.1207 132.684C93.3634 132.572 93.6457 132.516 93.9677 132.516C94.2944 132.516 94.579 132.572 94.8217 132.684C95.0644 132.796 95.251 132.952 95.3817 133.153C95.517 133.354 95.5847 133.585 95.5847 133.846C95.5847 134.093 95.5217 134.313 95.3957 134.504C95.2744 134.695 95.1017 134.845 94.8777 134.952C95.153 135.069 95.3677 135.239 95.5217 135.463C95.6804 135.682 95.7597 135.937 95.7597 136.226C95.7597 136.497 95.685 136.735 95.5357 136.94C95.391 137.141 95.1857 137.299 94.9197 137.416C94.6537 137.528 94.3364 137.584 93.9677 137.584ZM93.9677 136.989C94.2897 136.989 94.551 136.912 94.7517 136.758C94.957 136.599 95.0597 136.396 95.0597 136.149C95.0597 135.892 94.957 135.685 94.7517 135.526C94.551 135.367 94.2897 135.288 93.9677 135.288C93.7577 135.288 93.571 135.323 93.4077 135.393C93.2444 135.463 93.116 135.566 93.0227 135.701C92.934 135.832 92.8897 135.981 92.8897 136.149C92.8897 136.312 92.934 136.459 93.0227 136.59C93.116 136.716 93.2444 136.814 93.4077 136.884C93.571 136.954 93.7577 136.989 93.9677 136.989ZM93.9677 134.679C94.243 134.679 94.467 134.609 94.6397 134.469C94.817 134.324 94.9057 134.14 94.9057 133.916C94.9057 133.673 94.817 133.477 94.6397 133.328C94.467 133.174 94.243 133.097 93.9677 133.097C93.697 133.097 93.4754 133.174 93.3027 133.328C93.13 133.477 93.0437 133.673 93.0437 133.916C93.0437 134.14 93.13 134.324 93.3027 134.469C93.4754 134.609 93.697 134.679 93.9677 134.679ZM98.3725 137.584C97.9945 137.584 97.6585 137.477 97.3645 137.262C97.0705 137.043 96.8395 136.744 96.6715 136.366C96.5082 135.983 96.4265 135.545 96.4265 135.05C96.4265 134.555 96.5082 134.119 96.6715 133.741C96.8395 133.358 97.0682 133.06 97.3575 132.845C97.6515 132.626 97.9898 132.516 98.3725 132.516C98.7552 132.516 99.0912 132.626 99.3805 132.845C99.6745 133.06 99.9055 133.358 100.073 133.741C100.241 134.119 100.325 134.555 100.325 135.05C100.325 135.545 100.241 135.983 100.073 136.366C99.9102 136.744 99.6815 137.043 99.3875 137.262C99.0935 137.477 98.7552 137.584 98.3725 137.584ZM98.3725 136.954C98.6198 136.954 98.8392 136.872 99.0305 136.709C99.2265 136.546 99.3782 136.322 99.4855 136.037C99.5928 135.752 99.6465 135.423 99.6465 135.05C99.6465 134.677 99.5928 134.348 99.4855 134.063C99.3782 133.774 99.2265 133.547 99.0305 133.384C98.8392 133.221 98.6198 133.139 98.3725 133.139C98.1252 133.139 97.9058 133.221 97.7145 133.384C97.5232 133.547 97.3738 133.774 97.2665 134.063C97.1592 134.348 97.1055 134.677 97.1055 135.05C97.1055 135.423 97.1592 135.755 97.2665 136.044C97.3738 136.329 97.5232 136.553 97.7145 136.716C97.9058 136.875 98.1252 136.954 98.3725 136.954ZM101.289 137.5L104.768 132.6H105.496L101.996 137.5H101.289ZM104.754 137.612C104.539 137.612 104.348 137.561 104.18 137.458C104.012 137.355 103.881 137.215 103.788 137.038C103.694 136.861 103.648 136.66 103.648 136.436C103.648 136.203 103.694 136 103.788 135.827C103.881 135.65 104.012 135.512 104.18 135.414C104.348 135.311 104.539 135.26 104.754 135.26C104.968 135.26 105.157 135.311 105.321 135.414C105.489 135.512 105.619 135.65 105.713 135.827C105.806 136 105.853 136.203 105.853 136.436C105.853 136.66 105.806 136.861 105.713 137.038C105.619 137.215 105.489 137.355 105.321 137.458C105.157 137.561 104.968 137.612 104.754 137.612ZM104.754 137.115C104.922 137.115 105.057 137.052 105.16 136.926C105.267 136.795 105.321 136.632 105.321 136.436C105.321 136.24 105.267 136.077 105.16 135.946C105.057 135.815 104.922 135.75 104.754 135.75C104.586 135.75 104.448 135.815 104.341 135.946C104.233 136.077 104.18 136.24 104.18 136.436C104.18 136.632 104.233 136.795 104.341 136.926C104.448 137.052 104.586 137.115 104.754 137.115ZM102.045 134.84C101.83 134.84 101.639 134.791 101.471 134.693C101.307 134.59 101.179 134.45 101.086 134.273C100.992 134.091 100.946 133.888 100.946 133.664C100.946 133.431 100.992 133.228 101.086 133.055C101.179 132.878 101.307 132.74 101.471 132.642C101.639 132.539 101.83 132.488 102.045 132.488C102.264 132.488 102.455 132.539 102.619 132.642C102.787 132.74 102.917 132.878 103.011 133.055C103.104 133.228 103.151 133.431 103.151 133.664C103.151 133.888 103.104 134.091 103.011 134.273C102.917 134.45 102.787 134.59 102.619 134.693C102.455 134.791 102.264 134.84 102.045 134.84ZM102.045 134.343C102.213 134.343 102.35 134.28 102.458 134.154C102.565 134.023 102.619 133.86 102.619 133.664C102.619 133.468 102.565 133.307 102.458 133.181C102.35 133.05 102.213 132.985 102.045 132.985C101.881 132.985 101.746 133.05 101.639 133.181C101.531 133.307 101.478 133.468 101.478 133.664C101.478 133.86 101.531 134.023 101.639 134.154C101.746 134.28 101.881 134.343 102.045 134.343Z" fill="#616263"/>
<path d="M121.069 137.584C120.733 137.584 120.451 137.521 120.222 137.395C119.993 137.269 119.809 137.099 119.669 136.884C119.534 136.665 119.436 136.413 119.375 136.128C119.314 135.843 119.284 135.54 119.284 135.218C119.284 134.812 119.326 134.443 119.41 134.112C119.494 133.781 119.618 133.496 119.781 133.258C119.944 133.02 120.145 132.838 120.383 132.712C120.621 132.581 120.894 132.516 121.202 132.516C121.449 132.516 121.694 132.556 121.937 132.635C122.18 132.71 122.397 132.815 122.588 132.95L122.217 133.447C122.068 133.344 121.907 133.267 121.734 133.216C121.561 133.16 121.4 133.132 121.251 133.132C120.808 133.132 120.467 133.321 120.229 133.699C119.991 134.072 119.884 134.649 119.907 135.428L119.767 135.309C119.879 135.034 120.054 134.814 120.292 134.651C120.535 134.483 120.819 134.399 121.146 134.399C121.463 134.399 121.743 134.469 121.986 134.609C122.229 134.749 122.418 134.94 122.553 135.183C122.688 135.421 122.756 135.696 122.756 136.009C122.756 136.312 122.686 136.583 122.546 136.821C122.406 137.059 122.208 137.246 121.951 137.381C121.699 137.516 121.405 137.584 121.069 137.584ZM121.076 136.982C121.267 136.982 121.438 136.94 121.587 136.856C121.736 136.772 121.853 136.655 121.937 136.506C122.026 136.352 122.07 136.179 122.07 135.988C122.07 135.792 122.026 135.619 121.937 135.47C121.853 135.316 121.736 135.197 121.587 135.113C121.438 135.029 121.267 134.987 121.076 134.987C120.88 134.987 120.705 135.029 120.551 135.113C120.402 135.197 120.283 135.316 120.194 135.47C120.11 135.619 120.068 135.792 120.068 135.988C120.068 136.179 120.11 136.352 120.194 136.506C120.283 136.655 120.402 136.772 120.551 136.856C120.705 136.94 120.88 136.982 121.076 136.982ZM125.215 137.584C124.837 137.584 124.501 137.477 124.207 137.262C123.913 137.043 123.682 136.744 123.514 136.366C123.351 135.983 123.269 135.545 123.269 135.05C123.269 134.555 123.351 134.119 123.514 133.741C123.682 133.358 123.911 133.06 124.2 132.845C124.494 132.626 124.833 132.516 125.215 132.516C125.598 132.516 125.934 132.626 126.223 132.845C126.517 133.06 126.748 133.358 126.916 133.741C127.084 134.119 127.168 134.555 127.168 135.05C127.168 135.545 127.084 135.983 126.916 136.366C126.753 136.744 126.524 137.043 126.23 137.262C125.936 137.477 125.598 137.584 125.215 137.584ZM125.215 136.954C125.463 136.954 125.682 136.872 125.873 136.709C126.069 136.546 126.221 136.322 126.328 136.037C126.436 135.752 126.489 135.423 126.489 135.05C126.489 134.677 126.436 134.348 126.328 134.063C126.221 133.774 126.069 133.547 125.873 133.384C125.682 133.221 125.463 133.139 125.215 133.139C124.968 133.139 124.749 133.221 124.557 133.384C124.366 133.547 124.217 133.774 124.109 134.063C124.002 134.348 123.948 134.677 123.948 135.05C123.948 135.423 124.002 135.755 124.109 136.044C124.217 136.329 124.366 136.553 124.557 136.716C124.749 136.875 124.968 136.954 125.215 136.954ZM128.131 137.5L131.61 132.6H132.338L128.838 137.5H128.131ZM131.596 137.612C131.382 137.612 131.19 137.561 131.022 137.458C130.854 137.355 130.724 137.215 130.63 137.038C130.537 136.861 130.49 136.66 130.49 136.436C130.49 136.203 130.537 136 130.63 135.827C130.724 135.65 130.854 135.512 131.022 135.414C131.19 135.311 131.382 135.26 131.596 135.26C131.811 135.26 132 135.311 132.163 135.414C132.331 135.512 132.462 135.65 132.555 135.827C132.649 136 132.695 136.203 132.695 136.436C132.695 136.66 132.649 136.861 132.555 137.038C132.462 137.215 132.331 137.355 132.163 137.458C132 137.561 131.811 137.612 131.596 137.612ZM131.596 137.115C131.764 137.115 131.9 137.052 132.002 136.926C132.11 136.795 132.163 136.632 132.163 136.436C132.163 136.24 132.11 136.077 132.002 135.946C131.9 135.815 131.764 135.75 131.596 135.75C131.428 135.75 131.291 135.815 131.183 135.946C131.076 136.077 131.022 136.24 131.022 136.436C131.022 136.632 131.076 136.795 131.183 136.926C131.291 137.052 131.428 137.115 131.596 137.115ZM128.887 134.84C128.673 134.84 128.481 134.791 128.313 134.693C128.15 134.59 128.022 134.45 127.928 134.273C127.835 134.091 127.788 133.888 127.788 133.664C127.788 133.431 127.835 133.228 127.928 133.055C128.022 132.878 128.15 132.74 128.313 132.642C128.481 132.539 128.673 132.488 128.887 132.488C129.107 132.488 129.298 132.539 129.461 132.642C129.629 132.74 129.76 132.878 129.853 133.055C129.947 133.228 129.993 133.431 129.993 133.664C129.993 133.888 129.947 134.091 129.853 134.273C129.76 134.45 129.629 134.59 129.461 134.693C129.298 134.791 129.107 134.84 128.887 134.84ZM128.887 134.343C129.055 134.343 129.193 134.28 129.3 134.154C129.408 134.023 129.461 133.86 129.461 133.664C129.461 133.468 129.408 133.307 129.3 133.181C129.193 133.05 129.055 132.985 128.887 132.985C128.724 132.985 128.589 133.05 128.481 133.181C128.374 133.307 128.32 133.468 128.32 133.664C128.32 133.86 128.374 134.023 128.481 134.154C128.589 134.28 128.724 134.343 128.887 134.343Z" fill="#616263"/>
<path d="M148.558 137.5V136.373H146.297V135.834L148.509 132.6H149.223V135.764H150.182V136.373H149.223V137.5H148.558ZM147.053 135.764H148.558V133.559L147.053 135.764ZM152.429 137.584C152.224 137.584 152.014 137.554 151.799 137.493C151.589 137.428 151.393 137.332 151.211 137.206C151.029 137.075 150.884 136.91 150.777 136.709L151.358 136.443C151.507 136.63 151.671 136.767 151.848 136.856C152.025 136.94 152.21 136.982 152.401 136.982C152.704 136.982 152.949 136.891 153.136 136.709C153.323 136.527 153.416 136.284 153.416 135.981C153.416 135.687 153.325 135.447 153.143 135.26C152.961 135.073 152.723 134.98 152.429 134.98C152.261 134.98 152.1 135.017 151.946 135.092C151.792 135.162 151.673 135.251 151.589 135.358L150.966 135.218L151.218 132.6H153.871V133.23H151.82L151.673 134.679C151.804 134.604 151.948 134.544 152.107 134.497C152.266 134.45 152.427 134.427 152.59 134.427C152.884 134.427 153.145 134.492 153.374 134.623C153.603 134.754 153.782 134.936 153.913 135.169C154.048 135.398 154.116 135.661 154.116 135.96C154.116 136.282 154.044 136.564 153.899 136.807C153.754 137.05 153.556 137.241 153.304 137.381C153.052 137.516 152.76 137.584 152.429 137.584ZM155.09 137.5L158.569 132.6H159.297L155.797 137.5H155.09ZM158.555 137.612C158.341 137.612 158.149 137.561 157.981 137.458C157.813 137.355 157.683 137.215 157.589 137.038C157.496 136.861 157.449 136.66 157.449 136.436C157.449 136.203 157.496 136 157.589 135.827C157.683 135.65 157.813 135.512 157.981 135.414C158.149 135.311 158.341 135.26 158.555 135.26C158.77 135.26 158.959 135.311 159.122 135.414C159.29 135.512 159.421 135.65 159.514 135.827C159.608 136 159.654 136.203 159.654 136.436C159.654 136.66 159.608 136.861 159.514 137.038C159.421 137.215 159.29 137.355 159.122 137.458C158.959 137.561 158.77 137.612 158.555 137.612ZM158.555 137.115C158.723 137.115 158.859 137.052 158.961 136.926C159.069 136.795 159.122 136.632 159.122 136.436C159.122 136.24 159.069 136.077 158.961 135.946C158.859 135.815 158.723 135.75 158.555 135.75C158.387 135.75 158.25 135.815 158.142 135.946C158.035 136.077 157.981 136.24 157.981 136.436C157.981 136.632 158.035 136.795 158.142 136.926C158.25 137.052 158.387 137.115 158.555 137.115ZM155.846 134.84C155.632 134.84 155.44 134.791 155.272 134.693C155.109 134.59 154.981 134.45 154.887 134.273C154.794 134.091 154.747 133.888 154.747 133.664C154.747 133.431 154.794 133.228 154.887 133.055C154.981 132.878 155.109 132.74 155.272 132.642C155.44 132.539 155.632 132.488 155.846 132.488C156.066 132.488 156.257 132.539 156.42 132.642C156.588 132.74 156.719 132.878 156.812 133.055C156.906 133.228 156.952 133.431 156.952 133.664C156.952 133.888 156.906 134.091 156.812 134.273C156.719 134.45 156.588 134.59 156.42 134.693C156.257 134.791 156.066 134.84 155.846 134.84ZM155.846 134.343C156.014 134.343 156.152 134.28 156.259 134.154C156.367 134.023 156.42 133.86 156.42 133.664C156.42 133.468 156.367 133.307 156.259 133.181C156.152 133.05 156.014 132.985 155.846 132.985C155.683 132.985 155.548 133.05 155.44 133.181C155.333 133.307 155.279 133.468 155.279 133.664C155.279 133.86 155.333 134.023 155.44 134.154C155.548 134.28 155.683 134.343 155.846 134.343Z" fill="#616263"/>
<g filter="url(#filter1_d_1497_31161)">
<g clip-path="url(#clip0_1497_31161)">
<rect x="45.5" y="45.5" width="38" height="36" rx="2" fill="white"/>
<rect x="48.5" y="49.5" width="12" height="8" rx="2" fill="#E8983A"/>
<path d="M69.496 76.584C69.2907 76.584 69.0807 76.5537 68.866 76.493C68.656 76.4277 68.46 76.332 68.278 76.206C68.096 76.0753 67.9513 75.9097 67.844 75.709L68.425 75.443C68.5743 75.6297 68.7377 75.7673 68.915 75.856C69.0923 75.94 69.2767 75.982 69.468 75.982C69.7713 75.982 70.0163 75.891 70.203 75.709C70.3897 75.527 70.483 75.2843 70.483 74.981C70.483 74.687 70.392 74.4467 70.21 74.26C70.028 74.0733 69.79 73.98 69.496 73.98C69.328 73.98 69.167 74.0173 69.013 74.092C68.859 74.162 68.74 74.2507 68.656 74.358L68.033 74.218L68.285 71.6H70.938V72.23H68.887L68.74 73.679C68.8707 73.6043 69.0153 73.5437 69.174 73.497C69.3327 73.4503 69.4937 73.427 69.657 73.427C69.951 73.427 70.2123 73.4923 70.441 73.623C70.6697 73.7537 70.8493 73.9357 70.98 74.169C71.1153 74.3977 71.183 74.6613 71.183 74.96C71.183 75.282 71.1107 75.5643 70.966 75.807C70.8213 76.0497 70.623 76.241 70.371 76.381C70.119 76.5163 69.8273 76.584 69.496 76.584ZM73.7392 76.584C73.3612 76.584 73.0252 76.4767 72.7312 76.262C72.4372 76.0427 72.2062 75.744 72.0382 75.366C71.8749 74.9833 71.7932 74.5447 71.7932 74.05C71.7932 73.5553 71.8749 73.119 72.0382 72.741C72.2062 72.3583 72.4349 72.0597 72.7242 71.845C73.0182 71.6257 73.3565 71.516 73.7392 71.516C74.1219 71.516 74.4579 71.6257 74.7472 71.845C75.0412 72.0597 75.2722 72.3583 75.4402 72.741C75.6082 73.119 75.6922 73.5553 75.6922 74.05C75.6922 74.5447 75.6082 74.9833 75.4402 75.366C75.2769 75.744 75.0482 76.0427 74.7542 76.262C74.4602 76.4767 74.1219 76.584 73.7392 76.584ZM73.7392 75.954C73.9865 75.954 74.2059 75.8723 74.3972 75.709C74.5932 75.5457 74.7449 75.3217 74.8522 75.037C74.9595 74.7523 75.0132 74.4233 75.0132 74.05C75.0132 73.6767 74.9595 73.3477 74.8522 73.063C74.7449 72.7737 74.5932 72.5473 74.3972 72.384C74.2059 72.2207 73.9865 72.139 73.7392 72.139C73.4919 72.139 73.2725 72.2207 73.0812 72.384C72.8899 72.5473 72.7405 72.7737 72.6332 73.063C72.5259 73.3477 72.4722 73.6767 72.4722 74.05C72.4722 74.4233 72.5259 74.7547 72.6332 75.044C72.7405 75.3287 72.8899 75.5527 73.0812 75.716C73.2725 75.8747 73.4919 75.954 73.7392 75.954ZM76.6552 76.5L80.1342 71.6H80.8622L77.3622 76.5H76.6552ZM80.1202 76.612C79.9056 76.612 79.7142 76.5607 79.5462 76.458C79.3782 76.3553 79.2476 76.2153 79.1542 76.038C79.0609 75.8607 79.0142 75.66 79.0142 75.436C79.0142 75.2027 79.0609 74.9997 79.1542 74.827C79.2476 74.6497 79.3782 74.512 79.5462 74.414C79.7142 74.3113 79.9056 74.26 80.1202 74.26C80.3349 74.26 80.5239 74.3113 80.6872 74.414C80.8552 74.512 80.9859 74.6497 81.0792 74.827C81.1726 74.9997 81.2192 75.2027 81.2192 75.436C81.2192 75.66 81.1726 75.8607 81.0792 76.038C80.9859 76.2153 80.8552 76.3553 80.6872 76.458C80.5239 76.5607 80.3349 76.612 80.1202 76.612ZM80.1202 76.115C80.2882 76.115 80.4236 76.052 80.5262 75.926C80.6336 75.7953 80.6872 75.632 80.6872 75.436C80.6872 75.24 80.6336 75.0767 80.5262 74.946C80.4236 74.8153 80.2882 74.75 80.1202 74.75C79.9522 74.75 79.8146 74.8153 79.7072 74.946C79.5999 75.0767 79.5462 75.24 79.5462 75.436C79.5462 75.632 79.5999 75.7953 79.7072 75.926C79.8146 76.052 79.9522 76.115 80.1202 76.115ZM77.4112 73.84C77.1966 73.84 77.0052 73.791 76.8372 73.693C76.6739 73.5903 76.5456 73.4503 76.4522 73.273C76.3589 73.091 76.3122 72.888 76.3122 72.664C76.3122 72.4307 76.3589 72.2277 76.4522 72.055C76.5456 71.8777 76.6739 71.74 76.8372 71.642C77.0052 71.5393 77.1966 71.488 77.4112 71.488C77.6306 71.488 77.8219 71.5393 77.9852 71.642C78.1532 71.74 78.2839 71.8777 78.3772 72.055C78.4706 72.2277 78.5172 72.4307 78.5172 72.664C78.5172 72.888 78.4706 73.091 78.3772 73.273C78.2839 73.4503 78.1532 73.5903 77.9852 73.693C77.8219 73.791 77.6306 73.84 77.4112 73.84ZM77.4112 73.343C77.5792 73.343 77.7169 73.28 77.8242 73.154C77.9316 73.0233 77.9852 72.86 77.9852 72.664C77.9852 72.468 77.9316 72.307 77.8242 72.181C77.7169 72.0503 77.5792 71.985 77.4112 71.985C77.2479 71.985 77.1126 72.0503 77.0052 72.181C76.8979 72.307 76.8442 72.468 76.8442 72.664C76.8442 72.86 76.8979 73.0233 77.0052 73.154C77.1126 73.28 77.2479 73.343 77.4112 73.343Z" fill="#616263"/>
<path d="M41.5 71.2587C43.4397 72.95 47.8562 75.3179 50.0048 71.2587C52.6905 66.1848 54.0333 62.6331 57.1667 64.6626C60.3 66.6922 58.9571 69.9058 64.3286 70.4132C69.971 70.9462 63.881 60.2653 67.4619 55.6988C70.8526 51.3749 75.9296 61.2801 78.6524 61.2801C80.8905 61.2801 85.8143 53.5 88.5 53.5" stroke="#AAB7E8"/>
</g>
</g>
</g>
<defs>
<filter id="filter0_d_1497_31161" x="0" y="0" width="218" height="192" filterUnits="userSpaceOnUse" color-interpolation-filters="sRGB">
<feFlood flood-opacity="0" result="BackgroundImageFix"/>
<feColorMatrix in="SourceAlpha" type="matrix" values="0 0 0 0 0 0 0 0 0 0 0 0 0 0 0 0 0 0 127 0" result="hardAlpha"/>
<feMorphology radius="0.5" operator="dilate" in="SourceAlpha" result="effect1_dropShadow_1497_31161"/>
<feOffset/>
<feGaussianBlur stdDeviation="22.5"/>
<feComposite in2="hardAlpha" operator="out"/>
<feColorMatrix type="matrix" values="0 0 0 0 0.909804 0 0 0 0 0.596078 0 0 0 0 0.227451 0 0 0 0.3 0"/>
<feBlend mode="normal" in2="BackgroundImageFix" result="effect1_dropShadow_1497_31161"/>
<feBlend mode="normal" in="SourceGraphic" in2="effect1_dropShadow_1497_31161" result="shape"/>
</filter>
<filter id="filter1_d_1497_31161" x="39.5" y="39.5" width="50" height="48" filterUnits="userSpaceOnUse" color-interpolation-filters="sRGB">
<feFlood flood-opacity="0" result="BackgroundImageFix"/>
<feColorMatrix in="SourceAlpha" type="matrix" values="0 0 0 0 0 0 0 0 0 0 0 0 0 0 0 0 0 0 127 0" result="hardAlpha"/>
<feOffset/>
<feGaussianBlur stdDeviation="3"/>
<feComposite in2="hardAlpha" operator="out"/>
<feColorMatrix type="matrix" values="0 0 0 0 0 0 0 0 0 0 0 0 0 0 0 0 0 0 0.1 0"/>
<feBlend mode="normal" in2="BackgroundImageFix" result="effect1_dropShadow_1497_31161"/>
<feBlend mode="normal" in="SourceGraphic" in2="effect1_dropShadow_1497_31161" result="shape"/>
</filter>
<clipPath id="clip0_1497_31161">
<rect x="45.5" y="45.5" width="38" height="36" rx="2" fill="white"/>
</clipPath>
</defs>
</svg>
