<svg width="219" height="176" viewBox="0 0 219 176" fill="none" xmlns="http://www.w3.org/2000/svg">
<g filter="url(#filter0_d_1497_31128)">
<rect x="45.5" y="45.5" width="122" height="85" rx="8" fill="white" shape-rendering="crispEdges"/>
<g filter="url(#filter1_d_1497_31128)">
<mask id="path-2-inside-1_1497_31128" fill="white">
<path d="M78.4274 56.5C78.4274 54.2909 80.2182 52.5 82.4274 52.5H130.427C132.637 52.5 134.427 54.2909 134.427 56.5V77.5C134.427 79.7091 132.637 81.5 130.427 81.5H82.4274C80.2182 81.5 78.4274 79.7091 78.4274 77.5V56.5Z"/>
</mask>
<path d="M82.4274 81.5V81.15C81.9318 81.15 81.4602 81.0514 81.0303 80.8732L80.8962 81.1965L80.7621 81.5198C81.2755 81.7327 81.8382 81.85 82.4274 81.85V81.5ZM78.7309 79.0312L79.0542 78.8971C78.8759 78.4672 78.7774 77.9956 78.7774 77.5H78.4274H78.0774C78.0774 78.0892 78.1947 78.6518 78.4076 79.1652L78.7309 79.0312ZM78.4274 77.5H78.7774V76.1875H78.4274H78.0774V77.5H78.4274ZM78.4274 73.5625H78.7774V70.9375H78.4274H78.0774V73.5625H78.4274ZM78.4274 68.3125H78.7774V65.6875H78.4274H78.0774V68.3125H78.4274ZM78.4274 63.0625H78.7774V60.4375H78.4274H78.0774V63.0625H78.4274ZM78.4274 57.8125H78.7774V56.5H78.4274H78.0774V57.8125H78.4274ZM78.4274 56.5H78.7774C78.7774 56.0044 78.8759 55.5328 79.0542 55.1029L78.7309 54.9688L78.4076 54.8348C78.1947 55.3482 78.0774 55.9108 78.0774 56.5H78.4274ZM80.8962 52.8035L81.0303 53.1268C81.4602 52.9486 81.9318 52.85 82.4274 52.85V52.5V52.15C81.8382 52.15 81.2755 52.2673 80.7621 52.4802L80.8962 52.8035ZM82.4274 52.5V52.85H83.9274V52.5V52.15H82.4274V52.5ZM86.9274 52.5V52.85H89.9274V52.5V52.15H86.9274V52.5ZM92.9274 52.5V52.85H95.9274V52.5V52.15H92.9274V52.5ZM98.9274 52.5V52.85H101.927V52.5V52.15H98.9274V52.5ZM104.927 52.5V52.85H107.927V52.5V52.15H104.927V52.5ZM110.927 52.5V52.85H113.927V52.5V52.15H110.927V52.5ZM116.927 52.5V52.85H119.927V52.5V52.15H116.927V52.5ZM122.927 52.5V52.85H125.927V52.5V52.15H122.927V52.5ZM128.927 52.5V52.85H130.427V52.5V52.15H128.927V52.5ZM130.427 52.5V52.85C130.923 52.85 131.395 52.9486 131.824 53.1268L131.959 52.8035L132.093 52.4802C131.579 52.2673 131.017 52.15 130.427 52.15V52.5ZM134.124 54.9688L133.801 55.1029C133.979 55.5328 134.077 56.0044 134.077 56.5H134.427H134.777C134.777 55.9108 134.66 55.3482 134.447 54.8348L134.124 54.9688ZM134.427 56.5H134.077V57.8125H134.427H134.777V56.5H134.427ZM134.427 60.4375H134.077V63.0625H134.427H134.777V60.4375H134.427ZM134.427 65.6875H134.077V68.3125H134.427H134.777V65.6875H134.427ZM134.427 70.9375H134.077V73.5625H134.427H134.777V70.9375H134.427ZM134.427 76.1875H134.077V77.5H134.427H134.777V76.1875H134.427ZM134.427 77.5H134.077C134.077 77.9956 133.979 78.4672 133.801 78.8971L134.124 79.0312L134.447 79.1652C134.66 78.6518 134.777 78.0892 134.777 77.5H134.427ZM131.959 81.1965L131.824 80.8732C131.395 81.0514 130.923 81.15 130.427 81.15V81.5V81.85C131.017 81.85 131.579 81.7327 132.093 81.5198L131.959 81.1965ZM130.427 81.5V81.15H128.927V81.5V81.85H130.427V81.5ZM125.927 81.5V81.15H122.927V81.5V81.85H125.927V81.5ZM119.927 81.5V81.15H116.927V81.5V81.85H119.927V81.5ZM113.927 81.5V81.15H110.927V81.5V81.85H113.927V81.5ZM107.927 81.5V81.15H104.927V81.5V81.85H107.927V81.5ZM101.927 81.5V81.15H98.9274V81.5V81.85H101.927V81.5ZM95.9274 81.5V81.15H92.9274V81.5V81.85H95.9274V81.5ZM89.9274 81.5V81.15H86.9274V81.5V81.85H89.9274V81.5ZM83.9274 81.5V81.15H82.4274V81.5V81.85H83.9274V81.5ZM82.4274 81.5V80.8C81.9786 80.8 81.5525 80.7108 81.1644 80.5499L80.8962 81.1965L80.6281 81.8431C81.1832 82.0733 81.7914 82.2 82.4274 82.2V81.5ZM78.7309 79.0312L79.3775 78.763C79.2165 78.3749 79.1274 77.9487 79.1274 77.5H78.4274H77.7274C77.7274 78.136 77.8541 78.7442 78.0843 79.2993L78.7309 79.0312ZM78.4274 77.5H79.1274V76.1875H78.4274H77.7274V77.5H78.4274ZM78.4274 73.5625H79.1274V70.9375H78.4274H77.7274V73.5625H78.4274ZM78.4274 68.3125H79.1274V65.6875H78.4274H77.7274V68.3125H78.4274ZM78.4274 63.0625H79.1274V60.4375H78.4274H77.7274V63.0625H78.4274ZM78.4274 57.8125H79.1274V56.5H78.4274H77.7274V57.8125H78.4274ZM78.4274 56.5H79.1274C79.1274 56.0513 79.2165 55.6251 79.3775 55.237L78.7309 54.9688L78.0843 54.7007C77.8541 55.2558 77.7274 55.864 77.7274 56.5H78.4274ZM80.8962 52.8035L81.1644 53.4501C81.5525 53.2892 81.9786 53.2 82.4274 53.2V52.5V51.8C81.7914 51.8 81.1832 51.9267 80.6281 52.1569L80.8962 52.8035ZM82.4274 52.5V53.2H83.9274V52.5V51.8H82.4274V52.5ZM86.9274 52.5V53.2H89.9274V52.5V51.8H86.9274V52.5ZM92.9274 52.5V53.2H95.9274V52.5V51.8H92.9274V52.5ZM98.9274 52.5V53.2H101.927V52.5V51.8H98.9274V52.5ZM104.927 52.5V53.2H107.927V52.5V51.8H104.927V52.5ZM110.927 52.5V53.2H113.927V52.5V51.8H110.927V52.5ZM116.927 52.5V53.2H119.927V52.5V51.8H116.927V52.5ZM122.927 52.5V53.2H125.927V52.5V51.8H122.927V52.5ZM128.927 52.5V53.2H130.427V52.5V51.8H128.927V52.5ZM130.427 52.5V53.2C130.876 53.2 131.302 53.2892 131.69 53.4501L131.959 52.8035L132.227 52.1569C131.672 51.9267 131.063 51.8 130.427 51.8V52.5ZM134.124 54.9688L133.477 55.237C133.638 55.6251 133.727 56.0513 133.727 56.5H134.427H135.127C135.127 55.864 135.001 55.2558 134.77 54.7007L134.124 54.9688ZM134.427 56.5H133.727V57.8125H134.427H135.127V56.5H134.427ZM134.427 60.4375H133.727V63.0625H134.427H135.127V60.4375H134.427ZM134.427 65.6875H133.727V68.3125H134.427H135.127V65.6875H134.427ZM134.427 70.9375H133.727V73.5625H134.427H135.127V70.9375H134.427ZM134.427 76.1875H133.727V77.5H134.427H135.127V76.1875H134.427ZM134.427 77.5H133.727C133.727 77.9487 133.638 78.3749 133.477 78.763L134.124 79.0312L134.77 79.2993C135.001 78.7442 135.127 78.136 135.127 77.5H134.427ZM131.959 81.1965L131.69 80.5499C131.302 80.7108 130.876 80.8 130.427 80.8V81.5V82.2C131.063 82.2 131.672 82.0733 132.227 81.8431L131.959 81.1965ZM130.427 81.5V80.8H128.927V81.5V82.2H130.427V81.5ZM125.927 81.5V80.8H122.927V81.5V82.2H125.927V81.5ZM119.927 81.5V80.8H116.927V81.5V82.2H119.927V81.5ZM113.927 81.5V80.8H110.927V81.5V82.2H113.927V81.5ZM107.927 81.5V80.8H104.927V81.5V82.2H107.927V81.5ZM101.927 81.5V80.8H98.9274V81.5V82.2H101.927V81.5ZM95.9274 81.5V80.8H92.9274V81.5V82.2H95.9274V81.5ZM89.9274 81.5V80.8H86.9274V81.5V82.2H89.9274V81.5ZM83.9274 81.5V80.8H82.4274V81.5V82.2H83.9274V81.5Z" fill="#E8983A" mask="url(#path-2-inside-1_1497_31128)"/>
<path d="M112.886 66.6667H106.844V60.625C106.844 60.2798 106.564 60 106.219 60C105.874 60 105.594 60.2798 105.594 60.625V66.6667H99.5524C99.2072 66.6667 98.9274 66.9465 98.9274 67.2917C98.9274 67.6368 99.2072 67.9167 99.5524 67.9167H105.594V73.9583C105.594 74.3035 105.874 74.5833 106.219 74.5833C106.564 74.5833 106.844 74.3035 106.844 73.9583V67.9167H112.886C113.231 67.9167 113.511 67.6368 113.511 67.2917C113.511 66.9465 113.231 66.6667 112.886 66.6667Z" fill="#E8983A"/>
</g>
<g filter="url(#filter2_d_1497_31128)">
<rect x="71.5" y="89.5" width="69.8548" height="13.8372" rx="4" fill="white"/>
<rect x="77.7371" y="95.1977" width="58.6282" height="2.44186" rx="1.22093" fill="#E8983A"/>
</g>
<rect x="79.5" y="107.5" width="55" height="9" rx="4" fill="#E8983A"/>
<rect x="84.4108" y="111.206" width="46.1607" height="1.58824" rx="0.794118" fill="white"/>
<rect x="146.839" y="99.8604" width="26.5645" height="26.686" rx="4" fill="#E8983A"/>
<g clip-path="url(#clip0_1497_31128)">
<path d="M158.521 106.144C158.461 106.161 158.373 106.221 158.321 106.274C158.264 106.333 157.857 107.23 157.28 108.552L156.327 110.731L154.418 110.749L152.509 110.767L152.344 110.847C152.08 110.981 151.873 111.185 151.746 111.445C151.539 111.867 151.511 111.698 152.576 116.339C153.096 118.592 153.553 120.505 153.592 120.593C153.705 120.828 153.986 121.096 154.232 121.194L154.443 121.278H160.613H166.783L166.994 121.194C167.24 121.096 167.521 120.828 167.634 120.593C167.672 120.505 168.129 118.592 168.65 116.339C169.697 111.772 169.683 111.867 169.5 111.48C169.377 111.217 169.166 110.995 168.92 110.869L168.716 110.767L166.807 110.749L164.898 110.731L163.946 108.552C163.376 107.24 162.958 106.333 162.905 106.274C162.596 105.943 162.019 106.189 162.019 106.65C162.019 106.738 162.283 107.378 162.88 108.749C163.355 109.831 163.742 110.728 163.742 110.735C163.742 110.742 162.335 110.749 160.613 110.749C158.894 110.749 157.484 110.742 157.484 110.735C157.484 110.728 157.871 109.831 158.345 108.749C158.968 107.325 159.207 106.738 159.207 106.643C159.207 106.295 158.859 106.042 158.521 106.144ZM155.775 111.997C155.621 112.356 155.691 112.633 155.983 112.781C156.109 112.848 156.173 112.862 156.289 112.841C156.524 112.802 156.637 112.672 156.834 112.212L157.006 111.804H160.613H164.22L164.392 112.212C164.589 112.672 164.701 112.802 164.937 112.841C165.053 112.862 165.116 112.848 165.243 112.781C165.535 112.633 165.605 112.356 165.45 111.997L165.362 111.804H166.906C168.632 111.804 168.586 111.797 168.541 112.036C168.53 112.103 168.108 113.945 167.609 116.135C166.835 119.513 166.684 120.129 166.621 120.178C166.551 120.238 166.213 120.241 160.613 120.241C155.012 120.241 154.675 120.238 154.605 120.178C154.541 120.129 154.39 119.521 153.617 116.131C153.114 113.941 152.696 112.096 152.682 112.032C152.639 111.797 152.597 111.804 154.32 111.804H155.863L155.775 111.997Z" fill="white"/>
<path d="M157.164 114.17C156.911 114.338 156.918 114.251 156.928 116.574C156.939 118.613 156.939 118.656 157.013 118.751C157.143 118.926 157.259 118.99 157.449 118.99C157.639 118.99 157.755 118.926 157.885 118.751C157.959 118.656 157.959 118.613 157.969 116.574C157.976 114.648 157.973 114.483 157.916 114.37C157.825 114.194 157.649 114.089 157.449 114.089C157.336 114.089 157.245 114.113 157.164 114.17Z" fill="white"/>
<path d="M160.328 114.17C160.075 114.338 160.082 114.251 160.092 116.574C160.103 118.613 160.103 118.656 160.177 118.751C160.307 118.926 160.423 118.99 160.613 118.99C160.803 118.99 160.919 118.926 161.049 118.751C161.123 118.656 161.123 118.613 161.133 116.574C161.14 114.648 161.137 114.483 161.08 114.37C160.989 114.194 160.813 114.089 160.613 114.089C160.5 114.089 160.409 114.113 160.328 114.17Z" fill="white"/>
<path d="M163.492 114.17C163.239 114.338 163.246 114.251 163.257 116.574C163.267 118.613 163.267 118.656 163.341 118.751C163.471 118.926 163.587 118.99 163.777 118.99C163.967 118.99 164.083 118.926 164.213 118.751C164.287 118.656 164.287 118.613 164.297 116.574C164.304 114.648 164.301 114.483 164.244 114.37C164.153 114.194 163.977 114.089 163.777 114.089C163.664 114.089 163.573 114.113 163.492 114.17Z" fill="white"/>
</g>
</g>
<defs>
<filter id="filter0_d_1497_31128" x="0" y="0" width="218.903" height="176" filterUnits="userSpaceOnUse" color-interpolation-filters="sRGB">
<feFlood flood-opacity="0" result="BackgroundImageFix"/>
<feColorMatrix in="SourceAlpha" type="matrix" values="0 0 0 0 0 0 0 0 0 0 0 0 0 0 0 0 0 0 127 0" result="hardAlpha"/>
<feMorphology radius="0.5" operator="dilate" in="SourceAlpha" result="effect1_dropShadow_1497_31128"/>
<feOffset/>
<feGaussianBlur stdDeviation="22.5"/>
<feComposite in2="hardAlpha" operator="out"/>
<feColorMatrix type="matrix" values="0 0 0 0 0.909804 0 0 0 0 0.596078 0 0 0 0 0.227451 0 0 0 0.3 0"/>
<feBlend mode="normal" in2="BackgroundImageFix" result="effect1_dropShadow_1497_31128"/>
<feBlend mode="normal" in="SourceGraphic" in2="effect1_dropShadow_1497_31128" result="shape"/>
</filter>
<filter id="filter1_d_1497_31128" x="72.4274" y="46.5" width="67.9999" height="41" filterUnits="userSpaceOnUse" color-interpolation-filters="sRGB">
<feFlood flood-opacity="0" result="BackgroundImageFix"/>
<feColorMatrix in="SourceAlpha" type="matrix" values="0 0 0 0 0 0 0 0 0 0 0 0 0 0 0 0 0 0 127 0" result="hardAlpha"/>
<feOffset/>
<feGaussianBlur stdDeviation="3"/>
<feComposite in2="hardAlpha" operator="out"/>
<feColorMatrix type="matrix" values="0 0 0 0 0 0 0 0 0 0 0 0 0 0 0 0 0 0 0.1 0"/>
<feBlend mode="normal" in2="BackgroundImageFix" result="effect1_dropShadow_1497_31128"/>
<feBlend mode="normal" in="SourceGraphic" in2="effect1_dropShadow_1497_31128" result="shape"/>
</filter>
<filter id="filter2_d_1497_31128" x="65.5" y="83.5" width="81.8547" height="25.8372" filterUnits="userSpaceOnUse" color-interpolation-filters="sRGB">
<feFlood flood-opacity="0" result="BackgroundImageFix"/>
<feColorMatrix in="SourceAlpha" type="matrix" values="0 0 0 0 0 0 0 0 0 0 0 0 0 0 0 0 0 0 127 0" result="hardAlpha"/>
<feOffset/>
<feGaussianBlur stdDeviation="3"/>
<feComposite in2="hardAlpha" operator="out"/>
<feColorMatrix type="matrix" values="0 0 0 0 0 0 0 0 0 0 0 0 0 0 0 0 0 0 0.1 0"/>
<feBlend mode="normal" in2="BackgroundImageFix" result="effect1_dropShadow_1497_31128"/>
<feBlend mode="normal" in="SourceGraphic" in2="effect1_dropShadow_1497_31128" result="shape"/>
</filter>
<clipPath id="clip0_1497_31128">
<rect width="18" height="18" fill="white" transform="translate(151.613 104.702)"/>
</clipPath>
</defs>
</svg>
