<svg width="128" height="37" viewBox="0 0 128 37" fill="none" xmlns="http://www.w3.org/2000/svg">
<path d="M27.5669 1.5019C28.1672 1.5019 28.7746 1.721 29.4562 2.1804C34.4283 5.51285 39.4674 8.74282 44.4925 11.994C45.5589 12.6831 46.4206 13.4818 46.8655 14.7327C48.9808 20.6591 51.089 26.5889 53.296 32.4834C54.0623 34.5295 53.4867 35.3353 51.4809 35.3353C51.4244 35.3353 51.3679 35.3353 51.3114 35.3317C50.2061 35.307 37.7936 35.2858 25.9213 35.2858C15.6029 35.2858 5.69048 35.3035 3.96367 35.3494C3.88598 35.3529 3.80829 35.3529 3.73413 35.3529C1.80251 35.3529 1.03975 34.6426 1.77426 32.6248C3.99898 26.5182 6.24843 20.4188 8.46255 14.3087C8.88631 13.139 9.8327 12.5453 10.7826 11.9233C15.7123 8.70748 20.6668 5.53759 25.5435 2.25108C26.2709 1.76341 26.9136 1.5019 27.5669 1.5019ZM27.5669 0C26.6311 0 25.7201 0.318049 24.703 1.00716C21.1717 3.38546 17.531 5.74962 14.0102 8.03251C12.6613 8.90891 11.3123 9.78532 9.96336 10.6653L9.8892 10.7147C8.88631 11.3685 7.63623 12.1848 7.05356 13.7963C5.68695 17.5634 4.28855 21.3906 2.93253 25.0906C2.07795 27.43 1.21984 29.7659 0.368799 32.1088C0.174577 32.6425 -0.415151 34.261 0.488864 35.5544C1.39641 36.8548 3.15853 36.8548 3.73767 36.8548C3.82595 36.8548 3.91423 36.8548 4.00605 36.8513C5.48213 36.8124 13.4699 36.7877 25.9249 36.7877C37.8713 36.7877 50.1955 36.8089 51.2832 36.8336C51.3503 36.8336 51.4174 36.8372 51.4845 36.8372C52.0495 36.8372 53.7622 36.8372 54.6521 35.5544C55.5631 34.2398 54.9204 32.5188 54.7086 31.9533C52.6074 26.3415 50.5557 20.5955 48.5747 15.0367L48.2851 14.2239C47.6389 12.4145 46.357 11.4074 45.3117 10.7289C44.4148 10.1493 43.5178 9.56975 42.6174 8.98666C38.5634 6.36805 34.3682 3.65757 30.2966 0.929411C29.3608 0.303914 28.4674 0 27.5669 0Z" fill="white"/>
<path d="M22.8808 23.9246C20.3595 24.2321 18.2336 23.3168 16.2278 22.0022C16.2102 23.0906 15.7864 23.9918 15.0978 24.7728C14.3739 25.5926 13.4805 26.2181 12.6153 26.8684C11.9585 27.3631 11.4994 27.9497 11.2875 28.7555C11.0757 29.5541 10.8073 30.3351 10.6448 31.1479C10.5389 31.678 10.6484 32.0702 11.111 32.3671C11.3723 32.5332 11.5595 32.7593 11.4782 33.1233C11.4217 33.2682 11.2875 33.2788 11.1428 33.2753C10.659 33.2718 10.1752 33.2753 9.69139 33.2718C9.18289 33.2718 9.00279 33.0739 9.06988 32.5756C9.17935 31.7769 9.28883 30.9747 9.42655 30.1796C9.57839 29.3067 9.73024 28.4339 9.81852 27.5469C9.85737 27.1511 10.0198 26.8118 10.2741 26.5079C11.2063 25.3841 11.8102 24.1084 12.0538 22.6666C12.1245 22.2567 12.1033 21.8361 12.0715 21.4262C12.0432 21.0269 12.0115 20.6275 12.0221 20.1434C11.7537 20.6487 11.7007 21.1258 11.616 21.5923C11.51 22.1966 11.3758 22.7903 11.0792 23.3345C10.8426 23.7656 10.5142 24.0907 10.0198 24.2109C9.88915 24.2427 9.76908 24.2498 9.65255 24.1579C9.59605 23.9777 9.64902 23.8116 9.73024 23.6525C9.85383 23.4052 10.0127 23.179 10.1893 22.9634C10.6766 22.3697 10.945 21.6771 10.9344 20.9208C10.9097 19.4154 11.6371 18.2881 12.6542 17.2916C13.1274 16.8286 13.6394 16.4151 14.2115 16.0335C14.5823 16.4258 15.066 16.4823 15.5675 16.4823C17.9547 16.4823 20.3453 16.4788 22.7325 16.4858C23.301 16.4858 23.8131 16.3833 24.1627 15.8639C24.7383 15.9522 25.2009 16.242 25.6423 16.5742C26.0908 16.9064 26.4298 17.3446 26.8006 17.7545C27.2455 18.2457 27.7646 18.6415 28.4179 18.7899C29.3608 19.009 30.2789 18.5319 30.7309 17.6131C31.0099 17.0477 31.1971 16.4434 31.3913 15.8427C31.642 15.0546 31.815 14.2453 32.1611 13.4962C31.7409 12.588 31.7267 12.3406 32.0763 12.0649C32.486 12.0755 32.8179 12.3264 33.2028 12.4855C33.5913 12.2805 34.015 12.2876 34.4176 12.4501C35.2369 12.7859 36.102 12.9025 36.9672 13.0509C37.6382 13.1675 38.2032 13.4361 38.4115 14.1747C38.6305 14.9521 38.3056 15.4469 37.504 15.4186C36.6529 15.3868 35.8725 15.6306 35.0815 15.8745C34.8308 15.9522 34.7142 16.0971 34.6577 16.3409C34.4635 17.2067 34.2658 18.069 33.9338 18.8959C33.4536 20.0975 32.7473 21.1364 31.7409 21.9845C32.3447 22.9387 33.0863 23.7444 34.0398 24.3381C34.7142 24.7551 35.4452 24.8859 36.2327 24.7056C36.2715 24.6244 36.155 24.6456 36.1444 24.5819C36.7659 23.0977 37.564 21.6983 38.4892 20.3731C38.574 20.2529 38.6587 20.1293 38.7399 20.0056C39.146 19.3942 39.6757 18.9701 40.4879 18.9065C40.3219 18.8217 40.1948 18.8076 40.0677 18.7935C39.9406 18.7793 39.8134 18.7581 39.6898 18.7298C39.365 18.6556 39.2555 18.4083 39.478 18.2033C39.9335 17.7828 40.2337 17.2739 40.3855 16.6413C41.2577 16.56 42.1017 16.3445 43.0057 16.1218C42.9457 16.6095 42.9951 17.0512 43.1823 17.4258C43.1576 17.6273 43.0163 17.6273 42.9033 17.6767C42.868 17.9489 42.8857 18.2528 42.6102 18.433C42.363 18.4789 42.137 18.4224 41.904 18.3128C41.851 18.4789 41.8404 18.6309 41.9181 18.7581C42.4654 19.6699 42.5749 20.6805 42.6385 21.7124C42.6773 22.3167 42.9281 22.8539 43.2565 23.3522C43.5602 23.8116 43.8709 24.2674 44.1711 24.7127C44.1322 24.8293 44.0086 24.7975 43.9627 24.8788C44.104 25.0272 44.2699 25.158 44.3618 25.3488C44.5454 25.7234 44.3971 26.098 44.0157 26.1969C43.7367 26.2711 43.5072 26.1475 43.4083 25.8753C43.3553 25.7269 43.3094 25.5785 43.2635 25.4478C43.1258 25.3841 43.0446 25.5078 42.9281 25.4937C42.8433 25.4584 42.8504 25.3488 42.748 25.2569C43.0976 27.4515 43.5213 29.593 43.9062 31.7098C43.7579 31.8759 43.5708 31.8087 43.4295 31.9042C43.4118 32.1056 43.5672 32.1692 43.7085 32.2222C44.0016 32.3388 44.3017 32.4342 44.5913 32.5544C44.9338 32.6957 44.9868 32.9007 44.7714 33.247H42.3348C42.0699 32.9254 42.0417 32.5049 41.9216 32.0702C40.4561 32.2893 38.9906 32.2858 37.5675 31.7911C37.4757 32.1197 37.5569 32.3424 37.8147 32.519C38.016 32.6533 38.2597 32.7346 38.3727 32.9714C38.3656 33.1834 38.2279 33.2435 38.0619 33.2682C37.7335 33.3177 37.4157 33.2612 37.1049 33.1516C36.6317 32.9855 36.1833 32.77 35.7666 32.4484C35.8831 32.0702 36.0844 31.7557 36.2362 31.4129C36.2186 31.2963 36.0632 31.3317 36.0173 31.2115C36.5329 30.3457 37.0237 29.4481 37.3557 28.4763C37.9595 26.7164 38.5386 24.9495 39.1319 23.1861C39.1672 23.0765 39.2061 22.967 39.2202 22.8433C38.5457 23.6596 38.016 24.5749 37.4581 25.4902C37.4086 25.5467 37.3415 25.4619 37.2497 25.4866C37.172 26.0414 36.9178 26.416 36.2892 26.1828C35.982 26.0697 36.0314 25.7269 35.989 25.4336C33.7007 25.5043 32.3483 24.0307 31.0841 22.3909C29.9999 23.0235 28.8346 23.2779 27.5669 23.2355C27.6587 23.5607 27.7399 23.861 27.8282 24.1614C28.1672 25.3311 28.4603 26.5185 29.043 27.6034C29.3255 28.1264 29.329 28.7449 29.5409 29.2997C29.781 29.9252 29.9999 30.5577 30.2224 31.1868C30.3954 31.678 30.6885 32.042 31.2112 32.1975C31.6137 32.3211 31.9845 32.7063 31.8998 33.1092C31.8221 33.2258 31.702 33.2506 31.5678 33.2506C31.024 33.2506 30.4837 33.2506 29.9399 33.2506C29.6186 33.2506 29.5091 33.0138 29.4208 32.77C29.0076 31.632 28.5768 30.4977 28.0507 29.4092C27.242 27.7342 26.3768 26.0909 25.3421 24.4936C24.7277 25.4336 24.1027 26.3312 23.686 27.3384C23.2799 28.3208 22.7396 29.2467 22.4783 30.2856C22.397 30.6107 22.2911 30.9288 22.2134 31.2539C22.051 31.9289 22.0651 31.9642 22.6442 32.3424C22.9338 32.5332 23.1104 32.7629 23.0291 33.1304C23.0256 33.1481 23.0115 33.1657 23.0009 33.1834C22.902 33.2718 22.7784 33.2541 22.6619 33.2576C22.2275 33.2612 21.7932 33.2612 21.3588 33.2576C20.7762 33.2506 20.4937 32.8866 20.5643 32.3105C20.7091 31.1161 21.1611 30.0065 21.4401 28.8509C21.8144 27.2889 22.3158 25.7658 22.7855 24.2321C22.8173 24.172 22.8349 24.0872 22.8808 23.9246Z" fill="white"/>
<path d="M19.1135 16.0396C17.8387 16.0396 16.5674 16.0396 15.2926 16.0396C14.6428 16.0396 14.3427 15.7569 14.3356 15.1102C14.3215 14.0642 14.325 13.0146 14.3321 11.9686C14.3356 11.488 14.6887 11.177 15.282 11.1098C15.3809 11.0992 15.4798 11.0992 15.5786 11.0992C17.9658 11.0992 20.3565 11.0957 22.7472 11.0992C23.5629 11.0992 23.9125 11.4491 23.916 12.2689C23.9196 13.216 23.9196 14.1666 23.916 15.1137C23.916 15.7392 23.6194 16.0325 22.9908 16.0325C21.6984 16.0361 20.4059 16.0325 19.1099 16.0325V16.0396H19.1135Z" fill="white"/>
<path d="M16.6233 22.7969C17.1248 23.0725 17.6121 23.3376 18.1206 23.6203C17.8911 24.2493 17.6651 24.8536 17.4461 25.465C17.1389 26.3166 16.807 27.1577 16.5668 28.0341C16.4821 28.3486 16.5174 28.6313 16.6692 28.9176C17.1248 29.7798 17.5839 30.6386 18.0147 31.515C18.2124 31.9143 18.4808 32.2041 18.8869 32.3914C19.3248 32.5928 19.4095 32.7695 19.353 33.2748C18.7245 33.3208 18.0853 33.2854 17.4638 33.2854C17.2731 33.1158 17.1954 32.9108 17.093 32.72C16.5068 31.6174 16.0089 30.4654 15.3132 29.4194C15.1437 29.1649 14.9672 28.914 14.7659 28.6843C14.494 28.3804 14.5116 28.0341 14.5752 27.6807C14.6811 27.1082 14.7306 26.5287 14.7977 25.9491C14.8153 25.8183 14.84 25.7053 14.946 25.6063C15.7299 24.8677 16.2949 23.9913 16.5668 22.9382C16.5739 22.8994 16.5951 22.864 16.6233 22.7969Z" fill="white"/>
<path d="M43.0017 15.686C42.1754 16.0287 41.3208 16.2372 40.4486 16.3221C40.1802 15.8344 40.5475 15.117 41.0984 14.958C41.342 14.8873 41.5822 14.8944 41.8293 14.9509C42.1578 15.0287 42.4756 15.1205 42.7546 15.322C42.8676 15.4032 42.9594 15.5057 43.0017 15.686Z" fill="white"/>
<path d="M82.4883 33.1309H82.5935H84.7851V34.8264H77.4622C76.8031 34.8264 76.1481 34.7536 75.5092 34.6038C74.8986 34.4582 74.3082 34.2518 73.7583 33.9766C73.2205 33.7096 72.7272 33.3818 72.2824 33.0014C71.8417 32.6251 71.4616 32.2043 71.1421 31.7389C70.8227 31.2736 70.5801 30.7718 70.4103 30.2498C70.2364 29.7116 70.1515 29.1573 70.1515 28.5948C70.1515 28.0323 70.2364 27.482 70.4103 26.9438C70.5801 26.4218 70.8227 25.9201 71.1421 25.4547C71.4575 24.9934 71.8417 24.5726 72.2824 24.1963C72.7272 23.8159 73.2246 23.4922 73.7624 23.2251C74.3123 22.9499 74.8986 22.7395 75.5092 22.5979C76.1481 22.4482 76.8031 22.3794 77.4622 22.3794C78.1173 22.3794 78.7683 22.4482 79.4071 22.5979C80.0177 22.7436 80.6081 22.9499 81.158 23.2251C81.6958 23.4962 82.1972 23.8199 82.646 24.1963C83.0868 24.5685 83.475 24.9894 83.7903 25.4547C84.1098 25.9201 84.3524 26.4218 84.5222 26.9438C84.6961 27.482 84.781 28.0364 84.781 28.5948C84.781 29.1573 84.6961 29.7116 84.5222 30.2498C84.3524 30.7718 84.1057 31.2736 83.7903 31.7389C83.6246 31.9858 83.4345 32.2164 83.2283 32.439C83.0463 32.6372 82.8482 32.8234 82.642 33.0014C82.5935 33.0459 82.5409 33.0864 82.4883 33.1309ZM80.9841 31.8279C81.437 31.4112 81.7888 30.9296 82.0355 30.3955C82.3023 29.8249 82.4236 29.222 82.4236 28.6029C82.4236 27.9838 82.3023 27.3809 82.0355 26.8103C81.7848 26.2762 81.437 25.7906 80.9841 25.3778C80.5313 24.9651 80.0015 24.6495 79.4071 24.4229C78.7885 24.1882 78.1334 24.0749 77.4582 24.0749C76.791 24.0749 76.144 24.1882 75.5294 24.4229C74.935 24.6495 74.4053 24.9651 73.9524 25.3778C73.4955 25.7946 73.1397 26.2762 72.889 26.8143C72.6221 27.3849 72.5008 27.9878 72.5008 28.6069C72.5008 29.2261 72.6221 29.829 72.889 30.3995C73.1397 30.9377 73.4914 31.4193 73.9524 31.836C74.4053 32.2447 74.935 32.5644 75.5294 32.791C76.144 33.0257 76.791 33.139 77.4582 33.139C78.1294 33.139 78.7885 33.0298 79.4071 32.791C80.0015 32.5563 80.5313 32.2407 80.9841 31.8279Z" fill="white"/>
<path d="M86.6576 28.2023C86.9245 27.6318 87.3046 27.134 87.7979 26.7011C88.3033 26.256 88.8977 25.9242 89.5568 25.6854C90.2806 25.4224 91.0489 25.3091 91.8293 25.3091C92.6097 25.3091 93.382 25.4224 94.1058 25.6854C94.4535 25.8108 94.7892 25.9646 95.1005 26.1467C95.3755 26.3086 95.6343 26.4907 95.8728 26.7011C96.3661 27.134 96.7462 27.6358 97.0171 28.2023C97.2962 28.785 97.4215 29.4041 97.4215 30.0354V34.4542H95.1005V33.9281C94.7892 34.1102 94.4535 34.2599 94.1018 34.3854C93.3699 34.6484 92.5935 34.7576 91.805 34.7576C91.0327 34.7576 90.2685 34.6443 89.5528 34.3813C88.8977 34.1426 88.3033 33.8108 87.7979 33.3697C87.3046 32.9408 86.9285 32.439 86.6616 31.8725C86.3826 31.2857 86.2532 30.6707 86.2532 30.0354C86.2532 29.4041 86.3786 28.785 86.6576 28.2023ZM94.8862 31.2938C94.9913 31.0632 95.0601 30.8204 95.0965 30.5776C95.1248 30.3996 95.1409 30.2175 95.1409 30.0354C95.1409 29.8573 95.1288 29.6793 95.0965 29.5012C95.056 29.2585 94.9873 29.0197 94.8822 28.7891C94.7204 28.4249 94.4899 28.0931 94.1826 27.8098C93.8834 27.5306 93.5276 27.3202 93.1273 27.1705C92.7148 27.0167 92.2781 26.9479 91.8333 26.9479C91.3885 26.9479 90.9599 27.0207 90.5475 27.1705C90.1472 27.3202 89.7994 27.5347 89.4962 27.8098C89.1889 28.0931 88.9543 28.4208 88.7926 28.7891C88.6147 29.1856 88.5419 29.6065 88.5419 30.0354C88.5419 30.4643 88.6147 30.8892 88.7926 31.2898C88.9584 31.658 89.1929 31.9898 89.5002 32.2731C89.8035 32.5483 90.1593 32.7668 90.5596 32.9165C90.968 33.0703 91.4007 33.139 91.8455 33.139C92.2902 33.139 92.727 33.0703 93.1394 32.9165C93.5397 32.7668 93.8915 32.5523 94.1907 32.2771C94.498 31.9939 94.7245 31.658 94.8862 31.2938Z" fill="white"/>
<path d="M100.05 34.4543V27.899H98.9012V26.2925H100.05V25.7179C100.05 24.2288 101.259 22.938 102.9 22.6669C103.11 22.6304 103.325 22.6143 103.535 22.6143H104.663V24.2207H104.028C103.115 24.2207 102.371 24.8843 102.371 25.6977V26.2925H104.663V27.899H102.371V34.4543H100.05Z" fill="white"/>
<path d="M108.743 23.0105C108.743 23.6498 108.161 24.1718 107.441 24.1718C106.721 24.1718 106.139 23.6539 106.139 23.0105C106.139 22.3711 106.721 21.8491 107.441 21.8491C108.157 21.8532 108.743 22.3711 108.743 23.0105ZM108.597 34.4539H106.276V25.6285H108.597V34.4539Z" fill="white"/>
<path d="M112.552 22.6177V31.3743C112.552 32.1876 113.296 32.8512 114.21 32.8512H114.845V34.4577H113.716C113.502 34.4577 113.288 34.4415 113.082 34.4051C111.44 34.134 110.231 32.8432 110.231 31.354V22.6177H112.552Z" fill="white"/>
<path d="M116.729 28.2023C116.996 27.6318 117.376 27.134 117.869 26.7011C118.375 26.256 118.969 25.9242 119.628 25.6854C120.352 25.4224 121.12 25.3091 121.901 25.3091C122.681 25.3091 123.454 25.4224 124.177 25.6854C124.525 25.8108 124.861 25.9646 125.172 26.1467C125.447 26.3086 125.706 26.4907 125.944 26.7011C126.438 27.134 126.818 27.6358 127.089 28.2023C127.368 28.785 127.493 29.4041 127.493 30.0354V34.4542H125.172V33.9281C124.861 34.1102 124.525 34.2599 124.173 34.3854C123.441 34.6484 122.665 34.7576 121.877 34.7576C121.104 34.7576 120.34 34.6443 119.624 34.3813C118.969 34.1426 118.375 33.8108 117.869 33.3697C117.376 32.9408 117 32.439 116.733 31.8725C116.454 31.2857 116.325 30.6707 116.325 30.0354C116.325 29.4041 116.454 28.785 116.729 28.2023ZM124.962 31.2938C125.067 31.0632 125.136 30.8204 125.172 30.5776C125.2 30.3996 125.217 30.2175 125.217 30.0354C125.217 29.8573 125.204 29.6793 125.172 29.5012C125.132 29.2585 125.063 29.0197 124.958 28.7891C124.796 28.4249 124.566 28.0931 124.258 27.8098C123.959 27.5306 123.603 27.3202 123.203 27.1705C122.79 27.0167 122.354 26.9479 121.909 26.9479C121.464 26.9479 121.036 27.0207 120.623 27.1705C120.223 27.3202 119.875 27.5347 119.572 27.8098C119.264 28.0931 119.03 28.4208 118.868 28.7891C118.69 29.1856 118.617 29.6065 118.617 30.0354C118.617 30.4643 118.69 30.8892 118.868 31.2898C119.034 31.658 119.268 31.9898 119.576 32.2731C119.879 32.5483 120.235 32.7668 120.635 32.9165C121.044 33.0703 121.476 33.139 121.921 33.139C122.366 33.139 122.803 33.0703 123.215 32.9165C123.615 32.7668 123.967 32.5523 124.266 32.2771C124.57 31.9939 124.8 31.658 124.962 31.2938Z" fill="white"/>
<path d="M81.3477 6.92828L81.3841 16.5225H83.0905L83.5029 18.8937H78.5172V9.31166H76.3822C75.9941 9.31166 75.6018 9.3845 75.2015 9.52612C74.8012 9.66775 74.4413 9.88626 74.1259 10.1817C73.8065 10.4771 73.5477 10.8493 73.3496 11.2985C73.1515 11.7476 73.0504 12.2858 73.0504 12.9049C73.0504 13.5119 73.1434 14.038 73.3334 14.4952C73.5194 14.9484 73.7701 15.3247 74.0815 15.6242C74.3928 15.9236 74.7487 16.1462 75.149 16.2999C75.5493 16.4497 75.9617 16.5266 76.3863 16.5266H77.8864L77.8662 18.8978H77.0979C76.5844 18.8978 76.0588 18.8614 75.5129 18.7926C74.967 18.7238 74.4373 18.6024 73.9197 18.4244C73.4022 18.2463 72.9129 18.0157 72.46 17.7243C72.0031 17.433 71.6028 17.0688 71.251 16.6237C70.8992 16.1786 70.6283 15.6525 70.4261 15.0415C70.228 14.4305 70.1269 13.7223 70.1269 12.909C70.1269 11.9419 70.3331 11.0557 70.7455 10.2504C71.158 9.4452 71.6998 8.76134 72.3751 8.19078C72.6743 7.95609 72.9816 7.76185 73.293 7.60809C73.6043 7.45432 73.9157 7.32888 74.2311 7.23176C74.595 7.12656 75.0115 7.05372 75.4846 7.00516C75.9577 6.9566 76.4955 6.93232 77.0979 6.93232H81.3477V6.92828ZM74.5829 2.37598C74.8457 2.37598 75.0924 2.4124 75.3228 2.48119C75.5533 2.54998 75.7555 2.64709 75.9334 2.76849C76.1073 2.88988 76.2448 3.03151 76.3459 3.18932C76.4469 3.35118 76.4955 3.51709 76.4955 3.68704C76.4955 3.86913 76.4469 4.03908 76.3459 4.20094C76.2448 4.3628 76.1073 4.50038 75.9334 4.62178C75.7595 4.74317 75.5533 4.84029 75.3228 4.91313C75.0924 4.98596 74.8457 5.02238 74.5829 5.02238C74.3322 5.02238 74.0936 4.98596 73.8631 4.91313C73.6326 4.84029 73.4305 4.74317 73.2647 4.62178C73.0948 4.50038 72.9614 4.35876 72.8603 4.20094C72.7592 4.04313 72.7107 3.86913 72.7107 3.68704C72.7107 3.51304 72.7592 3.34713 72.8603 3.18932C72.9614 3.03151 73.0948 2.88988 73.2647 2.76849C73.4345 2.64709 73.6326 2.55402 73.8631 2.48119C74.0936 2.4124 74.3322 2.37598 74.5829 2.37598ZM78.8367 2.37598C79.0995 2.37598 79.3502 2.4124 79.5847 2.48119C79.8233 2.54998 80.0295 2.64709 80.2034 2.76849C80.3773 2.88988 80.5147 3.03151 80.6158 3.18932C80.7169 3.35118 80.7654 3.51709 80.7654 3.68704C80.7654 3.86913 80.7169 4.03908 80.6158 4.20094C80.5147 4.3628 80.3773 4.50038 80.2034 4.62178C80.0295 4.74317 79.8233 4.84029 79.5847 4.91313C79.3462 4.98596 79.0995 5.02238 78.8367 5.02238C78.586 5.02238 78.3474 4.98596 78.1169 4.91313C77.8864 4.84029 77.6843 4.74317 77.5185 4.62178C77.3486 4.50038 77.2152 4.35876 77.1141 4.20094C77.013 4.04313 76.9645 3.86913 76.9645 3.68704C76.9645 3.51304 77.013 3.34713 77.1141 3.18932C77.2152 3.03151 77.3486 2.88988 77.5185 2.76849C77.6883 2.64709 77.8864 2.55402 78.1169 2.48119C78.3474 2.4124 78.586 2.37598 78.8367 2.37598Z" fill="white"/>
<path d="M88.0199 2.02832H90.8666L90.8302 13.051C90.8666 13.6377 90.9879 14.1516 91.186 14.5886C91.3842 15.0257 91.647 15.3858 91.9624 15.6731C92.2818 15.9563 92.6417 16.1708 93.038 16.3165C93.4383 16.4581 93.8507 16.5309 94.2753 16.5309H94.987L95.3994 18.9022H94.9667C94.4936 18.9022 94.0003 18.8739 93.4949 18.8132C92.9894 18.7525 92.4921 18.6473 92.0069 18.5016C91.5216 18.3559 91.0526 18.1576 90.6118 17.9067C90.1671 17.6559 89.7708 17.3402 89.423 16.9599C89.0591 17.3402 88.6588 17.6559 88.214 17.9067C87.7692 18.1576 87.3042 18.3559 86.819 18.5016C86.3338 18.6473 85.8364 18.7525 85.331 18.8132C84.8255 18.8739 84.3363 18.9022 83.8591 18.9022H83.5033L83.0909 16.5309H84.5708C84.9954 16.5309 85.4078 16.4581 85.8081 16.3165C86.2084 16.1748 86.5683 15.9604 86.8837 15.6731C87.2031 15.3898 87.4619 15.0257 87.6601 14.5886C87.8582 14.1516 87.9795 13.6417 88.0159 13.051V2.02832H88.0199Z" fill="white"/>
<path d="M103.365 7.06991C103.652 7.16702 103.939 7.28437 104.226 7.43409C104.514 7.57976 104.801 7.7659 105.088 7.99251C105.423 8.27981 105.735 8.60757 106.014 8.97985C106.297 9.35213 106.531 9.75273 106.725 10.1857C106.919 10.6187 107.073 11.0719 107.186 11.5453C107.3 12.0188 107.356 12.5043 107.356 12.998C107.356 14.1634 107.138 15.1305 106.701 15.8913C106.264 16.652 105.706 17.259 105.035 17.7081C104.36 18.1573 103.612 18.4729 102.787 18.6469C101.962 18.825 101.161 18.9099 100.389 18.9018H95.3994L94.987 16.5306H96.7661C96.4426 16.0207 96.1879 15.4704 96.0059 14.8756C95.824 14.2848 95.735 13.6576 95.735 13.0021C95.735 12.0956 95.8523 11.3025 96.0908 10.6227C96.3294 9.94292 96.6448 9.36427 97.0451 8.87869C97.4454 8.39311 97.9064 8.00465 98.4321 7.70521C98.9577 7.40577 99.5076 7.18321 100.082 7.03754C100.68 6.90805 101.246 6.8514 101.776 6.86758C102.314 6.87972 102.84 6.95256 103.365 7.06991ZM100.029 9.82152C99.6936 10.0805 99.4106 10.4123 99.1842 10.8129C98.9577 11.2135 98.8041 11.6465 98.7151 12.1078C98.6261 12.5691 98.61 13.0425 98.6585 13.5281C98.707 14.0137 98.8324 14.4628 99.0345 14.8756C99.2327 15.2924 99.4955 15.6282 99.8109 15.8953C100.13 16.1583 100.47 16.3445 100.834 16.4456C101.198 16.5508 101.566 16.567 101.95 16.4982C102.33 16.4294 102.69 16.2676 103.026 16.0167C103.373 15.7577 103.66 15.4259 103.879 15.0253C104.097 14.6247 104.251 14.1917 104.34 13.7304C104.429 13.2691 104.441 12.7957 104.388 12.3101C104.332 11.8245 104.202 11.3754 104.004 10.9626C103.79 10.5458 103.531 10.21 103.228 9.94291C102.92 9.67989 102.589 9.49375 102.225 9.39259C101.861 9.28738 101.489 9.27119 101.109 9.33594C100.725 9.40068 100.365 9.56255 100.029 9.82152ZM101.23 2.37598C101.493 2.37598 101.74 2.4124 101.97 2.48119C102.201 2.54998 102.407 2.64709 102.589 2.76849C102.771 2.88988 102.912 3.03151 103.009 3.18932C103.11 3.35118 103.159 3.51709 103.159 3.68704C103.159 3.86913 103.11 4.03908 103.009 4.20094C102.908 4.3628 102.771 4.50039 102.589 4.62178C102.407 4.74317 102.201 4.84029 101.97 4.91313C101.74 4.98596 101.493 5.02238 101.23 5.02238C100.979 5.02238 100.741 4.98596 100.51 4.91313C100.28 4.84029 100.078 4.74317 99.912 4.62178C99.7422 4.50039 99.6087 4.35876 99.5076 4.20094C99.4066 4.04313 99.358 3.86913 99.358 3.68704C99.358 3.51304 99.4066 3.34714 99.5076 3.18932C99.6087 3.03151 99.7422 2.88988 99.912 2.76849C100.082 2.64709 100.28 2.55402 100.51 2.48119C100.737 2.4124 100.979 2.37598 101.23 2.37598Z" fill="white"/>
<path d="M111.011 12.6983C111.011 13.3457 111.108 13.9082 111.302 14.3857C111.496 14.8632 111.755 15.2597 112.079 15.5794C112.402 15.8991 112.77 16.1378 113.182 16.2916C113.595 16.4453 114.028 16.5263 114.476 16.5263H115.152L115.564 18.8975H115.188C114.675 18.8975 114.149 18.8611 113.603 18.7923C113.061 18.7235 112.531 18.6021 112.018 18.4241C111.504 18.246 111.019 18.0154 110.558 17.724C110.097 17.4327 109.689 17.0685 109.341 16.6234C108.989 16.1783 108.718 15.6522 108.516 15.0412C108.318 14.4302 108.217 13.722 108.217 12.9087C108.217 11.0837 108.213 9.27091 108.209 7.47022C108.205 5.66953 108.205 3.85671 108.217 2.03174H111.027L111.011 12.6983Z" fill="white"/>
<path d="M123.526 7.06991C123.813 7.16702 124.1 7.28437 124.387 7.43409C124.674 7.57976 124.961 7.7659 125.249 7.99251C125.584 8.27981 125.896 8.60757 126.175 8.97985C126.458 9.35213 126.692 9.75273 126.886 10.1857C127.08 10.6187 127.234 11.0719 127.347 11.5453C127.46 12.0188 127.517 12.5043 127.517 12.998C127.517 14.1634 127.299 15.1305 126.862 15.8913C126.425 16.652 125.867 17.259 125.196 17.7081C124.521 18.1573 123.773 18.4729 122.948 18.6469C122.123 18.825 121.322 18.9099 120.55 18.9018H115.564L115.152 16.5306H116.931C116.608 16.0207 116.353 15.4704 116.171 14.8756C115.989 14.2848 115.9 13.6576 115.9 13.0021C115.9 12.0956 116.017 11.3025 116.256 10.6227C116.494 9.94292 116.81 9.36427 117.21 8.87869C117.61 8.39311 118.071 8.00465 118.597 7.70521C119.123 7.40577 119.673 7.18321 120.247 7.03754C120.845 6.90805 121.411 6.8514 121.941 6.86758C122.475 6.87972 123 6.95256 123.526 7.06991ZM119.798 2.37598C120.061 2.37598 120.307 2.4124 120.538 2.48119C120.768 2.54998 120.975 2.64709 121.156 2.76849C121.338 2.88988 121.48 3.03151 121.577 3.18932C121.678 3.35118 121.727 3.51709 121.727 3.68704C121.727 3.86913 121.678 4.03908 121.577 4.20094C121.476 4.3628 121.338 4.50039 121.156 4.62178C120.975 4.74317 120.768 4.84029 120.538 4.91313C120.307 4.98596 120.061 5.02238 119.798 5.02238C119.547 5.02238 119.309 4.98596 119.078 4.91313C118.848 4.84029 118.645 4.74317 118.48 4.62178C118.31 4.50039 118.176 4.35876 118.075 4.20094C117.974 4.04313 117.926 3.86913 117.926 3.68704C117.926 3.51304 117.974 3.34714 118.075 3.18932C118.176 3.03151 118.31 2.88988 118.48 2.76849C118.649 2.64709 118.848 2.55402 119.078 2.48119C119.309 2.4124 119.547 2.37598 119.798 2.37598ZM120.19 9.82152C119.854 10.0805 119.571 10.4123 119.345 10.8129C119.119 11.2135 118.965 11.6465 118.876 12.1078C118.787 12.5691 118.771 13.0425 118.819 13.5281C118.868 14.0137 118.993 14.4628 119.195 14.8756C119.394 15.2924 119.656 15.6282 119.972 15.8953C120.291 16.1583 120.631 16.3445 120.995 16.4456C121.359 16.5508 121.727 16.567 122.111 16.4982C122.491 16.4294 122.851 16.2676 123.186 16.0167C123.534 15.7577 123.821 15.4259 124.04 15.0253C124.258 14.6247 124.412 14.1917 124.5 13.7304C124.589 13.2691 124.602 12.7957 124.549 12.3101C124.492 11.8245 124.363 11.3754 124.165 10.9626C123.951 10.5458 123.692 10.21 123.389 9.94291C123.081 9.67989 122.75 9.49375 122.386 9.39259C122.022 9.28738 121.65 9.27119 121.27 9.33594C120.89 9.40068 120.53 9.56255 120.19 9.82152ZM124.072 2.37598C124.335 2.37598 124.581 2.4124 124.812 2.48119C125.042 2.54998 125.245 2.64709 125.422 2.76849C125.596 2.88988 125.734 3.03151 125.835 3.18932C125.936 3.35118 125.984 3.51709 125.984 3.68704C125.984 3.86913 125.936 4.03908 125.835 4.20094C125.734 4.3628 125.596 4.50039 125.422 4.62178C125.249 4.74317 125.046 4.84029 124.812 4.91313C124.581 4.98596 124.335 5.02238 124.072 5.02238C123.809 5.02238 123.566 4.98596 123.34 4.91313C123.114 4.84029 122.919 4.74317 122.75 4.62178C122.58 4.50039 122.446 4.35876 122.345 4.20094C122.244 4.04313 122.196 3.86913 122.196 3.68704C122.196 3.51304 122.244 3.34714 122.345 3.18932C122.446 3.03151 122.58 2.88988 122.75 2.76849C122.919 2.64709 123.114 2.55402 123.34 2.48119C123.562 2.4124 123.809 2.37598 124.072 2.37598Z" fill="white"/>
</svg>
